<?xml version="1.0" encoding="UTF-8" standalone="no"?>
<svg
   id="svg2000"
   version="1.1"
   viewBox="0 0 666.66666 499.99996"
   sodipodi:docname="europe.svg"
   width="400"
   height="300"
   inkscape:version="1.3.2 (091e20e, 2023-11-25)"
   inkscape:export-filename="europe.png"
   inkscape:export-xdpi="290.38458"
   inkscape:export-ydpi="290.38458"
   xmlns:inkscape="http://www.inkscape.org/namespaces/inkscape"
   xmlns:sodipodi="http://sodipodi.sourceforge.net/DTD/sodipodi-0.dtd"
   xmlns="http://www.w3.org/2000/svg"
   xmlns:svg="http://www.w3.org/2000/svg">
  <sodipodi:namedview
     id="namedview2"
     pagecolor="#ffffff"
     bordercolor="#000000"
     borderopacity="0.25"
     inkscape:showpageshadow="2"
     inkscape:pageopacity="0.0"
     inkscape:pagecheckerboard="true"
     inkscape:deskcolor="#d1d1d1"
     showgrid="false"
     showborder="true"
     inkscape:zoom="1.0689098"
     inkscape:cx="100.56976"
     inkscape:cy="347.08262"
     inkscape:window-width="1680"
     inkscape:window-height="997"
     inkscape:window-x="0"
     inkscape:window-y="25"
     inkscape:window-maximized="0"
     inkscape:current-layer="svg2000" />
  <defs
     id="defs1">
    <marker
       style="overflow:visible"
       id="ArrowWideRounded"
       refX="0"
       refY="0"
       orient="auto-start-reverse"
       inkscape:stockid="Wide, rounded arrow"
       markerWidth="0.69999999"
       markerHeight="0.89999998"
       viewBox="0 0 1 1"
       inkscape:isstock="true"
       inkscape:collect="always"
       preserveAspectRatio="xMidYMid"
       markerUnits="strokeWidth">
      <path
         style="fill:none;stroke:context-stroke;stroke-width:1;stroke-linecap:round"
         d="M 3,-3 0,0 3,3"
         transform="rotate(180,0.125,0)"
         sodipodi:nodetypes="ccc"
         id="path2" />
    </marker>
    <style
       id="style1">
      .cls-1 {
        stroke-width: 3px;
      }

      .cls-1, .cls-2 {
        fill: none;
        stroke: #15151b;
        stroke-miterlimit: 10;
      }

      .cls-3 {
        fill: #15151b;
      }

      .cls-3, .cls-4 {
        stroke-width: 0px;
      }

      .cls-4 {
        fill: #50495b;
      }

      .cls-2 {
        stroke-width: 5px;
      }
    </style>
    <marker
       style="overflow:visible"
       id="ArrowWideRounded-4"
       refX="0"
       refY="0"
       orient="auto-start-reverse"
       inkscape:stockid="Wide, rounded arrow"
       markerWidth="0.69999999"
       markerHeight="0.89999998"
       viewBox="0 0 1 1"
       inkscape:isstock="true"
       inkscape:collect="always"
       preserveAspectRatio="xMidYMid"
       markerUnits="strokeWidth">
      <path
         style="fill:none;stroke:context-stroke;stroke-width:1;stroke-linecap:round"
         d="M 3,-3 0,0 3,3"
         transform="rotate(180,0.125,0)"
         sodipodi:nodetypes="ccc"
         id="path2-1" />
    </marker>
    <marker
       style="overflow:visible"
       id="ArrowWideRounded-49"
       refX="0"
       refY="0"
       orient="auto-start-reverse"
       inkscape:stockid="Wide, rounded arrow"
       markerWidth="0.69999999"
       markerHeight="0.89999998"
       viewBox="0 0 1 1"
       inkscape:isstock="true"
       inkscape:collect="always"
       preserveAspectRatio="xMidYMid"
       markerUnits="strokeWidth">
      <path
         style="fill:none;stroke:context-stroke;stroke-width:1;stroke-linecap:round"
         d="M 3,-3 0,0 3,3"
         transform="rotate(180,0.125,0)"
         sodipodi:nodetypes="ccc"
         id="path2-15" />
    </marker>
  </defs>
  <path
     d="m 115.00175,-57.984909 c -0.3,-0.5 -0.2,-1.2 0.3,-1.5 0.5,-0.3 1.2,0.1 1.5,0.9 0.6,1.6 -0.9,2.1 -1.8,0.6 z"
     id="path92"
     style="fill:#50495b;fill-opacity:1" />
  <path
     d="m 119.70175,-56.284909 c 0.2,-0.7 1.30001,-1.4 2.30001,-1.6 1.6,-0.3 1.7,-0.1 0.5,1.2 -1.60001,1.9 -3.40001,2.1 -2.80001,0.4 z"
     id="path91"
     style="fill:#8a7b82;fill-opacity:1" />
  <path
     d="m 117.60175,-54.484909 c 0,-1.1 0.2,-1.6 0.5,-1.3 0.3,0.3 0.4,1.2 0,1.9 -0.3,0.8 -0.6,0.6 -0.6,-0.6 z"
     id="path90"
     style="fill:#8a7b82;fill-opacity:1" />
  <path
     d="m 113.00175,-49.084909 c -2.7,-1.5 -4.8,-5.9 -2.8,-6.1 0.5,0 1.8,-0.3 3.1,-0.5 2.5,-0.5 2.7,-0.1 1.3,2.5 -0.8,1.5 -0.5,1.9 1.5,2.5 1.4,0.3 2.5,1 2.5,1.5 0,1.700003 -2.5,1.800003 -5.5,0.1 z"
     id="path89"
     style="fill:#8a7b82;fill-opacity:1" />
  <path
     d="m 109.20175,-45.684906 c -0.4,-0.4 -0.7,-1.6 -0.7,-2.700003 0,-1.9 0,-2 1.7,-0.3 1.2,1.200003 1.4,2.000003 0.7,2.700003 -0.6,0.6 -1.3,0.7 -1.7,0.3 z"
     id="path88"
     style="fill:#8a7b82;fill-opacity:1" />
  <path
     d="m 113.60175,-45.484906 c 0,-1.1 0.2,-1.6 0.5,-1.3 0.3,0.3 0.4,1.2 0,1.9 -0.3,0.8 -0.6,0.6 -0.6,-0.6 z"
     id="path87"
     style="fill:#8a7b82;fill-opacity:1" />
  <path
     d="m 54.001752,-30.084917 c -0.4,-0.6 -0.2,-1.6 0.3,-2.2 0.5,-0.7 0.8,-2.79999 0.6,-4.69999 -0.4,-3.499999 -0.4,-3.499999 6.8,-6.799999 3.9,-1.8 7.4,-3 7.6,-2.8 0.3,0.3 0.1,1.7 -0.3,3.3 -0.4,1.6 -0.7,3.3 -0.6,3.9 0,0.6 -0.7,1.4 -1.9,1.7 -1.2,0.299999 -1.9,1.099999 -1.8,1.699999 0.2,0.6 -0.6,1.7 -1.7,2.29999 -1.1,0.6 -3.2,1.9 -4.7,2.9 -3.2,2.1 -3.5,2.1 -4.3,0.7 z"
     id="path86"
     style="fill:#8a7b82;fill-opacity:1" />
  <path
     d="m 47.301753,-26.484917 c -2,-1.5 -1.3,-2.6 1.7,-2.6 2.999999,0 3.699999,1 2.399999,2.7 -1.399999,1.6 -1.899999,1.6 -4.099999,0 z"
     id="path85"
     style="fill:#8a7b82;fill-opacity:1" />
  <path
     d="m 45.201753,-15.384917 c -0.9,-2.4 1.7,-8.7 3.6,-8.7 1.9,0 1.7,0.5 1.2,2.2 -2,7.1 -3.7,9.3 -4.8,6.4 z"
     id="path84"
     style="fill:#8a7b82;fill-opacity:1" />
  <path
     d="m 308.20175,-13.784917 c -1.9,-2.1 -0.8,-4.6 1.6,-3.7 1.8,0.7 2.1,2.2 0.8,4.2 -0.6,1 -1.2,0.9 -2.4,-0.5 z"
     id="path83"
     style="fill:#8a7b82;fill-opacity:1" />
  <path
     d="m 66.401752,-11.484917 c -0.3,-0.3 -1.8,-0.6 -3.4,-0.8 -2.9,-0.4 -4.7,-3 -3.8,-5.5 0.3,-0.8 0,-1 -1,-0.7 -2.3,0.9 -3.2,-3.2 -1.1,-5.3 1.6,-1.6 1.8,-1.6 3.1,0.2 1.3,1.8 1.4,1.8 1.4,-0.3 0,-2.1 0.6,-2.2 1.4,-2.2 1.8,0 2.8,3.1 1.9,5.5 -0.5,1.3 -0.3,1.6 0.6,1 0.8,-0.5 1.2,-0.2 1.1,1.1 -0.4,3.4 0,4.4 1.6,4.4 1.6,0 1.4,0.5 1.2,1.2 -0.4,1.3 -2.1,2.1 -2.9,1.4 z"
     id="path82"
     style="fill:#8a7b82;fill-opacity:1" />
  <path
     d="m 42.601753,-11.984917 c 0.2,-0.6 0.7,-1.1 1.1,-1.1 1.2,0 0.9,1.5 -0.4,1.9 -0.6,0.2 -1,-0.1 -0.8,-0.8 z"
     id="path81"
     style="fill:#8a7b82;fill-opacity:1" />
  <path
     d="m 63.701752,-9.184917 c 0.2,-0.6999999 1,-1.5 1.8,-1.8 0.8,-0.2 1.1,0.1 0.9,0.9 -0.2,0.7 -1,1.5 -1.8,1.8 -0.8,0.2 -1.1,-0.1 -0.9,-0.9 z"
     id="path80"
     style="fill:#8a7b82;fill-opacity:1" />
  <path
     d="m 58.001752,-8.084917 c -0.8,-1.3 0.4,-3.2 1.6,-2.5 1.2,0.8 1.2,3.5 0,3.5 -1.2,0 -1.2,-0.5 -1.6,-1 z"
     id="path79"
     style="fill:#8a7b82;fill-opacity:1" />
  <path
     d="m 53.501752,-0.5849171 c 0.7,-0.8 1.5,-1.3 1.7,-1.1 0.7,0.70000001 -0.7,2.59999997 -1.9,2.59999997 -1.2,0 -0.6,-0.59999999 0.2,-1.49999997 z"
     id="path78"
     style="fill:#8a7b82;fill-opacity:1" />
  <path
     d="m 47.701753,2.8150828 c 0.2,-0.6999999 1,-1.4999999 1.8,-1.7999999 0.8,-0.20000002 1.1,0.1 0.9,0.9 -0.2,0.6999999 -1,1.4999999 -1.8,1.7999999 -0.8,0.2 -1.1,-0.1 -0.9,-0.9 z"
     id="path77"
     style="fill:#8a7b82;fill-opacity:1" />
  <path
     d="m 300.50175,7.9150828 c 0,-0.5 0.7,-1 1.6,-1 0.9,0 1.3,0.5 0.9,1 -0.4,0.5 -1,0.9999999 -1.6,0.9999999 -0.6,0 -0.9,-0.4999999 -0.9,-0.9999999 z"
     id="path76"
     style="fill:#8a7b82;fill-opacity:1" />
  <path
     d="m 55.501752,15.015073 c 0,-0.6 0.4,-1.1 1,-1.1 0.6,0 1,0.2 1,0.4 0,0.2 -0.4,0.7 -1,1.1 -0.6,0.4 -1,0.1 -1,-0.4 z"
     id="path75"
     style="fill:#8a7b82;fill-opacity:1" />
  <path
     d="m 70.101752,25.415072 c -0.3,-0.8 -0.1,-1.5 0.4,-1.5 0.5,0 1,0.7 1,1.5 0,0.8 -0.2,1.5 -0.4,1.5 -0.2,0 -0.7,-0.7 -1,-1.5 z"
     id="path74"
     style="fill:#8a7b82;fill-opacity:1" />
  <path
     d="m 52.101752,25.415072 c 0.5,-1.999999 0.3,-2.399999 -1,-1.899999 -0.899999,0.3 -1.599999,0.2 -1.599999,-0.2 0,-1.5 1.799999,-3.7 3.199999,-4 0.7,-0.2 2,-0.4 2.9,-0.6 0.9,-0.2 2.9,-1.3 4.5,-2.6 1.9,-1.5 3,-1.9 3.3,-1.1 0.2,0.7 -0.1,1.5 -0.8,1.9 -0.7,0.4 -1.8,1.8 -2.5,3.1 -0.7,1.3 -1.8,2.3 -2.4,2.1 -0.6,-0.2 -1.2,0.6 -1.2,1.7 0,1.099999 -0.9,2.399999 -1.9,2.999999 -2.8,1.5 -3.2,1.3 -2.5,-1.5 z"
     id="path73"
     style="fill:#8a7b82;fill-opacity:1" />
  <path
     d="m 65.601752,33.515072 c -1.7,-2 -0.3,-6.8 1.8,-6.4 1.1,0.2 1.6,1.4 1.6,3.7 0,3.7 -1.5,4.9 -3.4,2.7 z"
     id="path72"
     style="fill:#8a7b82;fill-opacity:1" />
  <path
     d="m 51.001752,34.915072 c -0.299999,-0.5 -0.1,-1 0.4,-1 0.5,0 1.1,0.5 1.1,1 0,0.5 -0.2,1 -0.4,1 -0.2,0 -0.7,-0.5 -1.1,-1 z"
     id="path71"
     style="fill:#8a7b82;fill-opacity:1" />
  <path
     d="m 295.70175,43.815062 c 0,-3.1 0.2,-3.2 1.1,-1.1 0.7,1.6 0.7,2.6 0,3.4 -0.7,0.8 -1.1,0.2 -1,-2.3 z"
     id="path70"
     style="fill:#8a7b82;fill-opacity:1" />
  <path
     d="m 359.30175,62.815062 c -1.5,-0.9 -2.6,-5.9 -1.3,-5.9 1.3,0 5.5,2.5 6,3.7 1.1,3 -1.3,4.2 -4.7,2.2 z"
     id="path69"
     style="fill:#8a7b82;fill-opacity:1" />
  <path
     d="m 293.00175,65.215062 c -1.1,-0.3 -2.4,-1.1 -2.8,-1.9 -0.4,-0.8 -1.2,-1.2 -1.6,-0.9 -0.8,0.5 -4,-6.4 -4,-8.5 0,-2.1 0.9,-1 2.1,-1 1.2,0 2.9,-0.4 3.9,-1 2.3,-1.2 4.7,-0.4 5.3,1.8 0.3,1.1 0.5,0.9 0.6,-0.6 0.2,-3.2 1.7,-2 2.6,2 1.5,6.5 1.5,7.6 0,9.2 -1.6,1.6 -2.4,1.7 -6,0.9 z"
     id="path68"
     style="fill:#8a7b82;fill-opacity:1" />
  <path
     d="m 56.501752,57.415062 c 0,-3.3 -1.5,-3.3 -1.6,0 0,1.4 0.3,2.5 0.8,2.5 0.5,0 0.9,-1.1 0.9,-2.5 z"
     id="path67"
     style="fill:#8a7b82;fill-opacity:1" />
  <path
     d="m 46.301753,64.715062 c -1,-1 -2.8,-1.8 -4,-1.8 -2.2,0 -3.5,-2 -5.2,-7.8 -0.4,-1.2 -1.2,-2.2 -1.8,-2.2 -1.7,0 -4.2,2.2 -5,4.2 -0.4,1 -1.2,1.7 -1.9,1.7 -2.8,0 -8.5,-7.1 -7.3,-9 0.3,-0.5 1.5,-1 2.6,-1 1.1,0 2.3,-0.8 2.6,-2 0.3,-1.1 1.3,-2 2.2,-2 0.9,0 2.7,-1.6 4,-3.5 1.3,-1.9 3.1,-3.49999 4,-3.49999 0.9,0 2.5,-0.7 3.6,-1.5 2.4,-1.8 7.2,-1.9 10.8,-0.2 1.999999,1 2.699999,2.2 3.199999,5.59999 0.3,2.4 1.2,5.1 1.8,5.9 1,1.2 0.8,1.7 -0.7,2.9 -1.8,1.4 -1.8,1.4 0.2,1.4 2,0 3.3,1.7 3.3,4.6 0,2.9 -4.1,7.3 -5.6,6.7 -0.7,-0.3 -1.6,0.2 -1.9,1 -0.899999,2.3 -2.699999,2.5 -4.699999,0.5 z"
     id="path66"
     style="fill:#8a7b82;fill-opacity:1" />
  <path
     d="m 292.50175,69.915062 c -0.8,-0.5 -1.3,-1.1 -1,-1.4 0.3,-0.3 1.3,0.2 2.4,0.9 2.1,1.6 0.9,1.9 -1.4,0.5 z"
     id="path65"
     style="fill:#8a7b82;fill-opacity:1" />
  <path
     d="m 275.50175,69.215062 c -1.4,-0.8 -3.5,-1.2 -4.8,-1 -2.4,0.4 -2.6,-0.5 -2.3,-8.5 0.1,-2.9 -0.3,-3.9 -2.2,-5 -1.3,-0.7 -3,-1.3 -3.8,-1.3 -2,0 -1.5,-7.4 0.6,-9 1.9,-1.4 0.8,-5.89999 -1.3,-5.1 -1.1,0.4 -1.3,0 -0.9,-1.69999 0.3,-1.2 0.6,-4.9 0.6,-8 0,-5.7 0,-5.7 2.3,-4.5 1.2,0.7 3,1.9 4,2.7 1.6,1.2 1.8,1.2 1.8,-0.6 0,-2.8 3.6,-6.699999 5.5,-5.899999 1.3,0.5 1.4,1 0.4,2.699999 -0.9,1.7 -0.9,2 0,1.4 0.7,-0.4 1.6,-0.1 2.2,0.6 0.7,1 0.8,0.6 0.2,-1.1 -0.4,-1.399999 -0.8,-4.199999 -0.9,-6.199999 -0.2,-4.7 -0.6,-5.1 -4.2,-3.8 -4.1,1.5 -7.1,5.7 -5.6,8.1 1.7,2.699999 -0.4,3.299999 -2.3,0.7 -2.2,-3.2 -2,-4.9 1.2,-8.6 2.3,-2.7 3.6,-3.3 7.9,-3.6 6.5,-0.5 6.7,-0.6 10,-6.5999902 1.6,-2.9999999 3.4,-4.99999991 4.4,-4.99999991 1,0 2.9,-0.89999998 4.3,-2.09999999 1.4,-1.2 2.6,-1.5999999 2.6,-1.1 0,0.5 -0.4,1.3 -1,1.6 -0.6,0.4 -0.6,1.49999999 0,3.1 1.3,3.2999999 1.2,8.0999998 0,8.9000001 -0.5,0.29999 -1,1.49999 -1,2.59999 0,1.1 -0.5,1.9 -1.1,1.9 -0.6,0 -0.9,1.2 -0.4,3.8 0.4,2.1 0.7,4.4 0.8,5.2 0.1,2.699999 1.9,3.899999 4.9,3.299999 2.1,-0.4 3.1,-0.1 3.5,1.1 0.8,2.2 -1.5,7.6 -3.2,7.6 -1.7,0 -1.4,0.4 -1.4,1 0,0.6 -0.6,0.7 -1.4,0.4 -0.9,-0.3 -1.2,-1.2 -0.8,-2.2 0.5,-1.5 0.4,-1.5 -1.1,-0.3 -1.1,0.9 -1.7,2.9 -1.7,5.79999 0,2.9 -0.2,4.4 -2,3.8 -1.8,-0.6 -2,-0.3 -1.4,1.8 0.5,2 0.2,2.6 -1.5,3.2 -1.2,0.4 -1.9,1 -1.6,1.5 0.3,0.4 -0.1,1.3 -0.9,2 -0.9,0.8 -1.3,2.5 -1,5 0.3,2.7 0,4 -1.1,4.4 -2.2,0.8 -0.6,3.9 1.7,3.3 1.1,-0.3 2.7,0.3 3.9,1.5 2.3,2.3 1.6,4.4 -1,2.9 -1,-0.5 -2,-0.8 -2.2,-0.6 -1.3,1.1 -6.8,1.1 -8.9,0 z"
     id="path64"
     style="fill:#8a7b82;fill-opacity:1" />
  <path
     d="m 65.501752,70.115062 c 0,-0.4 1.6,-2.6 3.5,-4.8 2.9,-3.3 3.7,-3.7 4.5,-2.5 1.4,2.2 1.3,2.7 -1.7,5.5 -2.6,2.4 -6.3,3.4 -6.3,1.8 z"
     id="path63"
     style="fill:#8a7b82;fill-opacity:1" />
  <path
     d="m 298.40175,72.915062 c -0.3,-2.6 0.2,-4.4 1.8,-6.5 1.4,-1.9 1.5,-1.8 0.8,1.5 -0.4,1.9 -1.1,4.2 -1.6,5 -0.8,1.3 -0.9,1.3 -1,0 z"
     id="path62"
     style="fill:#8a7b82;fill-opacity:1" />
  <path
     d="m 264.50175,74.515062 c 0,-1.1 1.9,-1.5 2.5,-0.6 0.3,0.6 0,1 -0.9,1 -0.9,0 -1.6,-0.2 -1.6,-0.4 z"
     id="path61"
     style="fill:#8a7b82;fill-opacity:1" />
  <path
     d="m 316.40175,74.915062 c -0.1,-1.5 -0.4,-1.9 -0.6,-0.9 -0.5,1.9 -5.3,1.9 -9.6,0.1 -3.5,-1.5 -4,-6.2 -0.7,-6.2 3.3,0 2.7,0.7 3.6,1.5 1.7,1.7 3.4,2 3.4,0.4 0,-1.6 0.4,-0.8 0.9,-0.5 0.5,0.3 1.1,-0.3 1.4,-1.4 0.3,-1.1 0.1,-2.2 -0.3,-2.5 -0.4,-0.3 -0.6,-1.1 -0.3,-1.9 0.3,-0.9 -0.6,-1.6 -2.9,-2 -4.2,-0.8 -6.3,-3.2 -6.1,-6.9 0,-1.5 -0.5,-3.3 -1.2,-3.9 -1.9,-1.6 -1.7,-2.9 0.5,-2.9 2.2,0 5.2,-3 5.2,-4.9 0,-1.9 3.5,-0.6 3.8,2.2 0.4,3.6 1.5,3.5 2.9,-0.3 0.8,-2.2 0.8,-3 0,-3 -0.8,0 0,-1.2 1.4,-2.6 2,-1.99999 3.2,-2.39999 5.1,-1.89999 2.3,0.6 2.6,1.1 2.6,5.69999 0,2.8 0.6,5.4 1.2,5.8 0.7,0.4 0.9,1.3 0.5,1.9 -0.5,0.8 -1.1,0.8 -1.9,0.2 -0.8,-0.6 -1.8,-0.5 -2.9,0.3 -2.3,1.7 -2.2,3.2 0.3,4.6 2.7,1.4 2.5,2.9 -0.5,4 -2.1,0.8 -2.4,1.4 -1.8,4.1 0.6,2.9 0.4,3.1 -1.5,2.6 -2.4,-0.6 -3,0.7 -0.7,1.6 0.8,0.3 2.1,-0.3 2.9,-1.5 1.4,-2 5.6,-2.3 4.6,-0.4 -0.3,0.5 -1,0.9 -1.7,0.7 -1.3,-0.3 -4.8,4.1 -6.3,7.9 l -0.9,2.4 -0.2,-2.5 z"
     id="path60"
     style="fill:#8a7b82;fill-opacity:1" />
  <path
     d="m 304.20175,81.315062 c -0.4,-0.4 -0.4,-1 -0.1,-1.5 0.9,-1.4 3.1,-1 3.8,0.6 0.6,1.5 -2.3,2.2 -3.7,0.9 z"
     id="path59"
     style="fill:#8a7b82;fill-opacity:1" />
  <path
     d="m 337.20175,84.215062 c -0.4,-0.4 -0.7,-1.9 -0.7,-3.4 0,-1.5 -0.6,-3 -1.2,-3.3 -0.8,-0.3 -0.6,-0.5 0.5,-0.6 1,0 1.5,-0.6 1.2,-1.4 -0.3,-0.8 0.2,-1.7 1.2,-2 1.3,-0.5 1.6,-0.2 1.2,1.4 -0.3,1.1 0,2.3 0.5,2.7 0.6,0.4 0.8,0.2 0.3,-0.5 -0.5,-0.7 0,-1.2 1.4,-1.2 1.4,0 2,0.4 1.5,1.9 -0.3,1.1 -0.1,2.2 0.4,2.6 1.7,1.1 1.2,2.5 -1,2.5 -2.2,0 -2,0.5 -2,1 0,1.1 -2.3,1.399999 -3.3,0.3 z"
     id="path58"
     style="fill:#8a7b82;fill-opacity:1" />
  <path
     d="m 351.30175,94.215061 c -2.3,-0.3 -2.6,-0.7 -1.8,-2.2 0.8,-1.5 0.5,-2 -1.3,-2.5 -1.3,-0.4 -1.7,-0.9 -1,-1.2 0.7,-0.3 2.8,0.8 4.7,2.3 3.3,2.6 4.6,4.5 2.8,4.2 -0.4,0 -2,-0.3 -3.5,-0.6 z"
     id="path57"
     style="fill:#8a7b82;fill-opacity:1" />
  <path
     d="m 229.80175,103.31506 c 0.3,-0.3 1.2,-0.4 1.9,0 0.8,0.3 0.6,0.6 -0.6,0.6 -1.1,0 -1.6,-0.2 -1.3,-0.5 z"
     id="path56"
     style="fill:#8a7b82;fill-opacity:1" />
  <path
     d="m 222.30176,104.21506 c 0.7,-0.3 1.8,-0.3 2.5,0 0.7,0.3 0.1,0.5 -1.2,0.5 -1.3,0 -1.9,-0.2 -1.2,-0.5 z"
     id="path55"
     style="fill:#8a7b82;fill-opacity:1" />
  <path
     d="m 214.50176,107.01506 c 0,-0.6 0.6,-1.1 1.4,-1.1 0.8,0 2.2,-0.3 3.2,-0.6 1.2,-0.4 1.5,-0.3 0.8,0.4 -1.5,1.6 -5.5,2.6 -5.5,1.3 z"
     id="path54"
     style="fill:#8a7b82;fill-opacity:1" />
  <path
     d="m 210.50176,110.11506 c 0,-1.2 1.9,-2.6 2.6,-1.9 0.3,0.3 -0.2,1 -1.1,1.7 -1,0.8 -1.5,0.9 -1.5,0.2 z"
     id="path53"
     style="fill:#8a7b82;fill-opacity:1" />
  <path
     d="m 206.50176,116.21506 c 0,-0.5 0.6,-1.8 1.4,-2.8 1.7,-2.3 3.5,-1.1 2,1.3 -1.2,1.9 -3.4,2.9 -3.4,1.5 z"
     id="path52"
     style="fill:#8a7b82;fill-opacity:1" />
  <path
     d="m 102.60175,166.51506 c -1.7,-2 1,-3.9 4.3,-3.1 2.9,0.7 3.2,1.4 1.4,3.2 -1.6,1.6 -4.3,1.5 -5.7,-0.2 z"
     id="path51"
     style="fill:#8a7b82;fill-opacity:1" />
  <path
     d="m 36.701753,169.91506 c -1,-1.6 -1.7,-1.8 -3.2,-1 -1.3,0.7 -2.1,0.7 -2.6,0 -1,-1.6 1.3,-3.7 4.9,-4.4 1.8,-0.3 4.6,-2 6.2,-3.6 1.6,-1.6 3.3,-3 3.8,-3 2,0 7.499999,-5.2 7.799999,-7.3 0.2,-1.6 1.1,-2.3 3,-2.6 1.6,-0.2 2.8,-1.1 3.2,-2.2 0.4,-1.5 1.4,-1.9 4.9,-1.9 2.4,0 5.6,0.7 7.2,1.5 3.1,1.6 7.6,2 7.6,0.6 0,-1.4 3.2,-4.7 5,-5.4 1,-0.4 0.6,-0.6 -0.9,-0.7 -1.3,0 -3.2,0.6 -4.2,1.5 -2.8,2.5 -7.3,1 -9.5,-3.1 -1.7,-3.1 -2.2,-3.4 -5.1,-2.8 -2.1,0.4 -3.3,0.2 -3.3,-0.5 0,-0.7 0.7,-1.1 1.5,-1.1 0.8,0 1.5,-0.5 1.5,-1 0,-0.5 -0.9,-1 -2,-1 -1.1,0 -2,-0.5 -2,-1 0,-0.5 -0.9,-1 -1.9,-1 -1,0 -2.2,0.5 -2.6,1 -1.2,1.9 -5.999999,1 -7.799999,-1.5 -1.7,-2.3 -1.7,-2.5 0,-2.5 1.7,0 1.5,-0.3 0.5,-1.2 -2.2,-2.2 -1.3,-3.7 2.599999,-4.4 2.1,-0.4 4.2,-0.9 4.8,-1.3 0.6,-0.3 1.5,-0.7 2.2,-0.8 5,-0.8 8.6,-2.9 9.8,-5.7 0.7,-1.7 1.1,-3.6 0.8,-4.3 -0.3,-0.7 0,-1.5 0.4,-1.8 0.5,-0.3 0.7,-2 0.4,-3.7 -0.4,-2.7 -0.8,-3 -2.6,-2.5 -8,2.6 -10.4,0.9 -3.6,-2.499999 4.5,-2.3 4.8,-3.2 2,-6.2 -2.6,-2.8 -2.5,-3.2 0.6,-4.8 2.4,-1.3 2.7,-1.2 4.4,1 1.8,2.3 5,3.2 11.5,3.1 1.6,0 3.3,0.5 3.7,1.2 0.6,0.9 0.8,0.8 0.8,-0.5 0,-1 0.4,-1.8 0.9,-1.8 0.7,0 1.5,-2.2 2.7,-7.499999 0.1,-0.5 0.3,-2 0.3,-3.2 0,-1.2 0.7,-2.2 1.5,-2.2 1.3,0 3,-3.9 2.1,-4.8 -0.9,-0.9 -1.2,-0.1 -2.2,0.3 -2.2,0.8 -2.8,0.8 -2.9,-0.2 0,-0.4 -0.7,-2.1 -1.4,-3.8 -0.7,-1.7 -1.4,-4.8 -1.4,-7 0,-3.7 0.4,-4.8 4.2,-8.9 1.6,-1.8 1.6,-2.5 -0.2,-2.5 -1.8,0 -1.5,0.3 -1.5,0.8 0,0.5 -1.9,1.3 -4.1,2 -3.6,1.1 -4.3,1.1 -6,-0.4 -1.7,-1.5 -1.9,-1.5 -1.9,-0.1 0,3 -2.1,2.9 -4.9,-0.2 -3.1,-3.4 -4.4,-3.1 -3.4,0.8 0.8,3.6 -1.1,1.7 -3.1,-3.1 l -1.5,-3.7 4.5,-5.3 c 2.5,-2.89999 4.5,-5.59999 4.5,-5.99999 0,-0.4 0.7,-0.9 1.5,-1.1 1.3,-0.3 1.3,-0.6 0,-3.2 -1.8,-3.5 -1.9,-5.8 -0.2,-7.599999 1,-1.1 0.9,-1.2 -0.4,-0.8 -1,0.3 -2.9,-0.3 -4.4,-1.6 -2.5,-1.9 -2.7,-2 -2,-0.3 0.4,1.1 0.1,2.799999 -0.7,3.999999 -0.8,1.2 -2.1,4.2 -2.9,6.6 -1.1,3.1 -2.1,4.5 -3.6,4.8 -2.3,0.4 -2.8,-1.6 -1.1,-4.6 1.6,-2.9 3.2,-7.5 3.6,-10.699999 0.2,-1.6 0.9,-3.3 1.6,-3.7 0.7,-0.4 1.3,-1.3 1.3,-2.1 0,-0.7 0.2,-2 0.3,-2.9 0.1,-0.9 1,-2.39999 2,-3.4999903 1,-1.0999999 2.1,-2.9999999 2.4,-4.2999999 0.6,-2.2 0.5,-2.2 -1.3,-0.6 -1.1,1 -2.4,1.4 -3.2,0.9 -1.1,-0.6 -1.1,-0.5 0,0.7 0.9,1.2 1,1.8 0,2.7 -1.4,1.3999999 -9.8,1.6000002 -9.8,0.1999999 0,-1.3999999 0.6,-0.9999999 1.4,-0.9999999 2.1,0 2.5,-2.3 0.8,-4.2 -1.4,-1.5999999 -1.3,-1.7999999 0.3,-2.3999999 1,-0.40000002 2.5,-0.20000002 3.5,0.4 1.3,0.8 1.7,0.7 1.7,-0.3 0,-1.00000001 -1,-1.40000001 -2.5,-1.40000001 -3.1,0 -1.6,-1.99999999 1.7,-2.29999999 1.2,0 2.1,-0.8 2.1,-1.5999999 0,-0.8 1.4,-3.1 3.1,-5.3 1.7,-2.1 2.8,-4.3 2.5,-4.8 -0.3,-0.5 0,-1.2 0.7,-1.4 0.7,-0.3 0.2,-0.5 -1,-0.6 -1.9,0 -2.2,-0.5 -1.8,-2.8 0.3,-1.5 0.9,-2.9 1.5,-3.1 0.5,-0.2 0.7,-1 0.4,-1.8 -0.3,-0.8 0,-1.4 0.5,-1.4 0.5,0 0.8,-0.9 0.5,-2 -0.5,-2.1 0.5,-2.4 5.5,-2 2.3,0.2 3.1,-1.3 1.2,-2.5 -1.6,-1 -1.2,-2.79999 0.5,-2.1 1.2,0.5 1.4,0 0.9,-1.89999 -0.5,-1.999999 -0.3,-2.499999 1.5,-2.499999 1.8,0 2,-0.3 1.9,-0.8 -0.1,-0.4 0.6,-2.4 1.6,-4.4 l 1.8,-3.7 4.2,2.2 c 3.4,1.7 5.9,2.2 13.199998,2.2 h 9 c 0,0 -0.3,3 -0.3,3 -0.3,3.399999 -2.6,5.699999 -12,11.799989 -3.599998,2.3 -4.099998,3.1 -3.099998,4.3 1,1.2 0.8,2 -1.2,4 l -2.4,2.6 4,-0.7 c 2.2,-0.4 4.599998,-1.2 5.199998,-1.7 0.8,-0.7 1.7,-0.6 2.7,0.2 0.8,0.7 2.9,1.4 4.8,1.6 8.6,1 12.40001,1.7 13.50001,2.7 1.9,1.5 1.5,6.4 -0.6,8.5 -1,1 -2.90001,3.9999999 -4.20001,6.79999989 -1.3,2.79999991 -3.3,5.99999991 -4.4,7.19999991 -1.1,1.1999999 -2.9,3.0999902 -3.8,4.1999902 -1,1.1 -2.9,2 -4.4,2 h -2.6 l 2.6,2.5 c 2.6,2.4 3.4,4.4 1.9,4.7 -0.4,0 -1.9,0.3 -3.2,0.4 -1.3,0.1 -3.8,0.9 -5.399998,1.8 l -2.9,1.599999 2.7,0.7 c 1.599998,0.4 3.299998,0.2 4.099998,-0.5 0.8,-0.7 2,-0.9 2.7,-0.4 4.2,2.5 8.8,7 9.9,9.8 0.7,1.7 1.8,3.7 2.4,4.3 0.6,0.59999 1.4,5.09999 1.8,9.99999 0.80001,11.3 2.20001,16 4.70001,16.9 3,0.9 7.9,6.1 7.9,8.3 0,2.2 1,2.9 2.2,4.2 1.5,1.6 1.8,2.5 1,2.8 -1.7,0.6 -1.4,3.1 0.8,7.699999 2.3,4.7 2.7,7.6 0.8,5.7 -2.5,-2.5 -2.9,-1.1 -0.4,1.8 1.4,1.7 2.9,4.699999 3.2,6.699999 0.6,3.3 0.4,3.9 -2.5,6.1 l -3.2,2.4 2.2,1.9 c 2.2,1.9 2.2,1.9 3.1,0 1.2,-2.6 3.1,-2.9 9.1,-1.4 9.1,2.3 13.6,9.7 10.1,16.4 -0.7,1.4 -1.6,3.7 -2,5 -0.3,1.3 -2,3.3 -3.6,4.4 -1.6,1.1 -3.2,2.8 -3.5,3.9 -0.4,1.5 -1.1,1.8 -3,1.3 -2.2,-0.5 -2.5,-0.3 -2.8,2.1 -0.2,2.2 -1,2.9 -3.3,3.3 l -3,0.6 2.8,1.3 c 1.5,0.7 2.8,1.6 2.8,2 0,0.4 1.7,0.7 3.7,0.6 3.3,0 3.8,0.2 3.9,2.3 0.1,2.6 -2.8,6.1 -5.1,6.1 -2.3,0 -1.9,0.7 -2.4,1.6 -0.5,0.9 -2.4,1.8 -4.2,2 -1.8,0.2 -4.6,1 -6.2,1.8 -2.6,1.3 -3.3,1.3 -5.8,0 -1.6,-0.8 -5.6,-1.5 -9.20001,-1.5 -3.6,0 -6.8,-0.5 -7.4,-1.1 -1.8,-1.8 -14.499998,-1 -15.099998,0.9 -0.5,1.5 -3.7,1.5 -6.5,0 -1.6,-0.9 -2.2,-0.9 -2.5,0 -0.2,0.7 -1.7,0 -3.7,-1.8 -3,-2.6 -3.7,-2.8 -7.2,-2 -2.1,0.5 -4.2,0.9 -4.6,0.9 -0.4,0 -1.3,1.3 -2,2.8 -1.6,3.5 -3.9,6.2 -5.2,6.2 -1.3,0 -2.3,-1.1 -3.7,-2.5 -2.1,-1.9 -3.8,-2.5 -7.3,-2.5 -3.499999,0 -10.399999,2.2 -11.799999,4.6 -1.1,2 -3,1.7 -4.5,-0.7 z"
     id="path50"
     style="fill:#8a7b82;fill-opacity:1" />
  <path
     d="m 216.70176,130.81506 c 2.4,-1.9 3.7,-3.7 3.4,-4.6 -0.3,-0.8 -0.1,-2.3 0.4,-3.3 0.8,-1.5 0.6,-1.9 -1.3,-2.2 -1.8,-0.3 -2.2,-0.9 -1.9,-3.1 0.4,-3.2 -0.4,-3.4 -3,-1.1 -2.2,2 -2.5,6.3 -0.3,6.3 2.2,0 1.8,2.1 -0.4,2.7 -1.3,0.3 -2,1.6 -2.3,3.9 -0.6,5.4 0,5.5 5.4,1.2 z"
     id="path49"
     style="fill:#8a7b82;fill-opacity:1" />
  <path
     d="m 218.20176,173.71506 c -0.2,-0.7 0.1,-2.2 0.8,-3.2 2.2,-3.6 2.7,-6.5 1.1,-6.5 -1.6,0 -2,-0.6 -2.6,-1.4 -0.7,-0.8 -1.9,-1.2 -2.7,-0.9 -0.8,0.3 -2.4,-0.6 -3.8,-2.2 -1.3,-1.5 -2.8,-2.5 -3.4,-2.1 -0.6,0.4 -1.5,0 -2,-1 -0.7,-1.2 -1.1,-1.3 -1.7,-0.5 -0.6,0.9 -1.1,0.9 -2.1,0 -1.1,-0.9 -1.5,-0.8 -2,0.5 -0.3,0.9 -1.5,1.6 -2.5,1.6 -1,0 -1.9,0.4 -1.9,0.9 0,1.5 -5.9,2.4 -7.5,1.1 -0.8,-0.6 -2.3,-0.9 -3.5,-0.5 -1.6,0.5 -2,0.2 -2,-1.5 0,-1.7 0.4,-2.1 4.8,-1.6 q 4.7,0.5 1.2,-0.6 c -4.3,-1.4 -5.4,-2.9 -3.3,-4.5 1.3,-1 2.4,-0.9 5.1,0.3 4.7,2 5.2,1.2 0.6,-1 -2.4,-1.1 -3.3,-2.1 -2.6,-2.7 0.7,-0.7 1.7,-0.6 3.2,0.2 1.2,0.6 2.4,0.9 2.8,0.6 0.3,-0.3 -0.2,-0.8 -1.1,-1.2 -2,-0.8 -2.2,-2.4 -0.2,-2.4 2,0 1.2,-0.6 1,-1.3 -0.3,-0.7 1.5,-3.3 3.9,-5.8 3,-3.1 4.7,-6.1 5.6,-9.5 2.1,-8.3 3.2,-10.6 4.8,-10 1.8,0.7 9,-4.3 9.6,-6.7 0.6,-2.3 8.6,-5.6 13.39999,-5.6 2.1,0 4.9,-0.2 6,-0.6 1.7,-0.5 2.6,0.1 4.8,3.4 2.8,4.2 2.8,5 0.2,12.3 -0.8,2.4 -1.9,3.8 -3,3.8 -1.8,0 -3.8,2.8 -3.8,5.5 0,2.7 1.1,2.1 2.5,2.7 1.4,0.6 2.5,1.7 2.5,2.5 0,0.8 -1.1,2.1 -2.5,3 -1.6,1 -2.5,2.6 -2.5,4.2 0,2.4 -0.2,2.5 -4.2,2 -6.29999,-0.8 -8.19999,0.6 -7.39999,5.6 0.4,2.3 1.1,4.7 1.7,5.4 1.2,1.5 -0.8,8.4 -2.9,9.6 -1.5,0.9 -1.7,4.3 -0.3,5.1 0.5,0.3 0.7,1.5 0.4,2.6 -0.6,2.2 -3.9,2.7 -4.6,0.7 z"
     id="path48"
     style="fill:#8a7b82;fill-opacity:1" />
  <path
     d="m 78.101752,194.11506 c -0.3,-0.6 -0.1,-1.3 0.5,-1.7 1.5,-1 2.5,0.4 1.2,1.6 -0.7,0.7 -1.3,0.7 -1.7,0 z"
     id="path47"
     style="fill:#8a7b82;fill-opacity:1" />
  <path
     d="m 84.001752,201.01506 c -0.3,-0.5 -0.1,-1.2 0.4,-1.6 1.2,-0.7 3,0.2 3,1.5 0,1.3 -2.7,1.2 -3.5,0 z"
     id="path46"
     style="fill:#8a7b82;fill-opacity:1" />
  <path
     d="m 431.30175,74.015062 c 2.6,-1.8 4.4,-2.1 14,-2.1 9.6,0 13.4,-0.5 16.3,-1 7.9,-1.5 14,-3 16.9,-4.1 1.9,-0.7 3.7,-0.5 6.8,0.7 3.7,1.5 4.3,2.2 5.7,6.8 0.8,2.8 3.3,8.2 5.5,11.999999 2.2,3.8 4,7.4 4,8 0,0.6 0.4,1.6 0.9,2.1 0.5,0.5 1.2,2.4 1.6,4.199999 0.6,2.9 0.4,3.4 -2.4,5 -3.8,2.2 -6.4,6.8 -5.9,10.6 0.3,2.3 1.1,3.1 3.8,4 3.5,1.1 3.5,1.2 3.8,7.5 0.2,3.9 0.9,6.9 1.8,7.8 0.8,0.8 1.4,2.2 1.4,3.2 0,1 1.8,3.7 4,6 2.29999,2.4 3.99999,5.2 3.99999,6.5 0,1.3 0.9,3.1 1.9,4 2.4,2.2 1.7,5.2 -1.5,6 -1.3,0.3 -2.4,1.1 -2.4,1.7 0,0.6 -1.09999,2.5 -2.39999,4.2 -1.3,1.8 -4.3,7 -6.6,11.7 -3.8,7.7 -4.1,8.8 -3,11.5 2.9,7.1 3,8.3 0.9,8.8 -2.4,0.6 -7.7,-1 -10.2,-3.2 -1.3,-1.1 -3.8,-1.6 -8.1,-1.6 -5.5,0 -6.6,0.3 -8.3,2.4 -1.6,2 -2.3,2.2 -3.4,1.3 -2.1,-1.7 -7.7,-0.7 -9.9,1.8 -1.1,1.2 -1.9,2.5 -1.9,2.8 0,0.3 -1.1,0.7 -2.5,0.7 -1.5,0 -2.5,-0.4 -2.5,-1.2 0,-0.8 -1.4,-2.7 -3.1,-4.4 -2.6,-2.6 -3.3,-2.9 -5,-1.8 -1.1,0.7 -1.9,1.8 -1.9,2.5 0,3 -3,2.1 -7.2,-2.1 -2.4,-2.4 -4.8,-5.2 -5.4,-6.2 -0.7,-1.3 -2.5,-1.8 -6.7,-2 -6.1,-0.3 -10.8,-2.9 -8.8,-4.9 1.7,-1.7 1.2,-2.3 -1.9,-1.8 -1.7,0.3 -3.9,-0.2 -5.2,-1.2 -1.3,-0.9 -3.1,-1.6 -4.1,-1.6 -1.5,0 -1.6,0.3 -0.6,1.9 1,1.6 0.8,2.3 -1.4,4.5 -2.6,2.6 -5.8,2.6 -5.8,0 0,-2.6 -1.3,-2.4 -3,-3.6 -2.8,-2 -2.9,-2.3 -1.4,-4 2,-2.2 1.1,-3.7 -2.1,-3.3 -1.4,0.2 -4.9,-0.6 -7.8,-1.7 -2.9,-1.1 -5.5,-1.8 -5.8,-1.7 -0.3,0.2 -0.9,-0.7 -1.5,-1.9 -1.2,-2.8 -4.5,-3 -4.5,-0.2 0,2.8 -0.7,2 -1.6,2 -0.9,0 -1.4,-0.5 -0.9,-1.8 0.4,-1 0.9,-3.1 1.2,-4.8 0.2,-1.7 0.6,-3.5 0.8,-4.2 0.2,-0.6 0,-1.5 -0.3,-1.8 -0.4,-0.4 -0.7,-1.2 -0.7,-1.8 0,-0.6 -1,-1.6 -2.2,-2.2 -1.4,-0.6 -2.2,-1.9 -2.2,-3.2 0,-1.3 -0.5,-2.5 -1,-2.9 -0.6,-0.4 -0.8,-2.3 -0.4,-5 0.5,-3 0.2,-5.3 -1,-7.8 -0.9,-1.9 -1.5,-4.8 -1.3,-6.4 0.3,-2.4 -0.3,-3.4 -3.9,-6.2 -4.4,-3.4 -4.7,-4.8 -1.6,-8.4 1.4,-1.7 1.4,-2.9 -0.3,-13.1 -0.6,-3.599999 -0.5,-3.799999 1.3,-2.799999 1.7,0.9 2,0.7 2.1,-1.8 0,-1.7 -0.5,-3.1 -1.4,-3.4 -0.8,-0.3 -1.2,-1 -0.9,-1.6 0.7,-1.2 10.1,-5.5 19.3,-8.899999 4.6,-1.7 6.7,-3.1 7.5,-4.9 1.6,-3.6 3,-4.9 6.3,-5.7 1.6,-0.4 3.9,-1.7 5.2,-2.9 3.2,-3 15.1,-7 18.3,-6.1 1.4,0.4 3.6,1.6 5,2.7 l 2.4,2.1 -2.5,-1.6 c -3.8,-2.4 -4.1,-2 -1.7,2.4 1.2,2.3 3.2,4.3 4.4,4.6"
     id="path45"
     style="fill:#8a7b82;fill-opacity:1" />
  <path
     d="m 210.10176,202.91506 c -2.1,-2.2 -4.5,-4 -5.2,-4 -1.2,0 -1.9,-2.6 -1.5,-5.2 0.2,-1 -0.2,-0.9 -3.4,0.3 -1.4,0.6 -3.7,0.7 -4.9,0.4 -1.9,-0.5 -2.3,-1.3 -2.4,-4.6 0,-4.9 -0.9,-5.9 -5,-6 -2.3,0 -3.2,-0.6 -3.4,-2.1 -0.2,-1.2 -1.3,-2.3 -2.8,-2.6 -1.8,-0.4 -2.7,-1.4 -3,-3.5 -0.5,-2.5 -1,-2.9 -3.3,-2.8 -3.8,0.3 -6.7,-2.8 -6.7,-7.2 0,-4.4 0.4,-3.7 6,-6.5 3.3,-1.7 6.2,-3 6.5,-3 0.3,0 0.5,1.2 0.5,2.6 0,2.1 0.4,2.5 2.2,2.4 1.2,-0.1 3,0.1 4,0.5 2.2,0.9 8.7,-0.2 8.7,-1.5 0,-1.3 0.9,-1 2,-1 1.1,0 2,-0.4 2,-0.9 0,-1.5 8.4,1.1 10.1,3.1 0.9,1 2.5,1.8 3.5,1.9 1,0 2.8,0.7 3.8,1.5 1.9,1.4 1.9,1.6 0.2,4.8 -2.1,3.8 -1.3,6.7 1.7,6.7 3,0 4.4,1.1 5.2,4.2 0.4,1.5 1.3,2.9 2.1,3.2 1.09999,0.4 0.59999,1.6 -2.4,5.3 -5.5,6.7 -6.5,9.2 -4.9,13 1.2,2.7 -0.6,5.3 -3.7,5.2 -1.2,0 -3.9,-1.8 -6,-4 z"
     id="path44"
     style="fill:#8a7b82;fill-opacity:1" />
  <path
     d="m 222.00176,208.11506 c -1.4,-1 -1.2,-12.9 0.2,-14.3 0.8,-0.8 1.5,-0.2 2.4,2.5 0.7,2 2.1,3.9 3.09999,4.2 1.7,0.5 1.7,0.8 0.2,3.8 -1.49999,2.9 -3.09999,4.7 -4.39999,4.7 -1.3,0 -1,-0.3 -1.5,-0.7 z"
     id="path43"
     style="fill:#8a7b82;fill-opacity:1" />
  <path
     d="m 356.30175,225.91506 c -1.3,-2.2 -3.8,-4.8 -5.6,-5.8 -1.8,-1 -4.2,-2.2 -5.2,-2.7 -1,-0.5 -2.3,-2 -2.9,-3.2 -0.6,-1.2 -2.1,-2.5 -3.3,-2.8 -3.1,-0.8 -8.3,-9.1 -7.9,-12.7 0.2,-2.1 -0.5,-3.6 -3,-6 -3,-2.9 -3.1,-3.2 -1.3,-3.6 1.1,-0.2 2.6,-1.3 3.3,-2.3 0.7,-1 3.1,-2.2 5.3,-2.5 2.2,-0.3 3.9,-1 3.9,-1.5 0,-0.5 0.7,-0.9 1.5,-0.9 0.8,0 1.5,-0.4 1.5,-1 0,-0.6 1.1,-1.3 2.5,-1.6 1.4,-0.3 2.5,-1 2.5,-1.4 0,-0.4 3,-2.2 6.6,-4 5.2,-2.6 6.5,-3.7 6.1,-5.1 -0.7,-2.7 1,-2.3 2.9,0.7 2.2,3.3 8.4,3.7 8.4,0.5 0,-3.2 1.3,-2.5 2.5,0.2 1,2.1 6.4,4.2 14.2,5.5 2.9,0.5 3.1,0.7 2,2.5 -1,1.7 -0.8,2.3 2.1,4.5 1.8,1.4 3.2,3.2 3.2,4 0,0.8 1.1,1.7 2.5,2 2.9,0.7 7.5,-2.9 7.5,-5.8 0,-1.9 1.5,-2.4 2.5,-0.8 0.3,0.5 1.7,1 3.1,1 1.4,0 2.4,0.6 2.4,1.3 0,3 4.4,5.4 10,5.4 4.2,0 5.7,0.5 6.5,1.8 0.6,1 2.1,2.8 3.4,4.1 1.8,1.8 2,2.3 0.8,2.3 -2.1,0 -8.6,6.9 -9.4,10 -0.3,1.4 -2,4 -3.7,5.8 -2.5,2.7 -3.8,3.2 -7.3,3.2 -3.5,0 -4.4,0.4 -5.5,3 -1.4,3.2 -4.4,4 -6.7,1.8 -2.3,-2.2 -1.6,-1 -3.2,0 -2.4,1.5 -6.6,1.6 -7.5,0.2 -0.3,-0.5 -1.7,-1 -3.1,-1 -1.4,0 -3.3,-0.4 -4.2,-0.9 -0.9,-0.5 -3.4,-1.1 -5.4,-1.4 -3.5,-0.5 -3.8,-0.4 -3.8,1.9 0,2.3 -5.4,8.8 -7.5,8 -0.8,-0.3 -1.7,-0.1 -2,0.4 -0.3,0.5 -1.9,1 -3.5,1 -2.3,0 -3.4,-0.8 -5.2,-4 z"
     id="path42"
     style="fill:#8a7b82;fill-opacity:1" />
  <path
     d="m 59.001752,245.81506 c -0.4,-0.6 -0.4,-1.3 -0.1,-1.6 0.7,-0.7 2.7,0.5 2.7,1.7 0,1.2 -1.7,1.2 -2.5,-0.1 z"
     id="path41"
     style="fill:#8a7b82;fill-opacity:1" />
  <path
     d="m 74.101752,257.41506 c -0.3,-0.8 -0.1,-1.5 0.4,-1.5 0.5,0 1,0.7 1,1.5 0,0.8 -0.2,1.5 -0.4,1.5 -0.2,0 -0.7,-0.7 -1,-1.5 z"
     id="path40"
     style="fill:#8a7b82;fill-opacity:1" />
  <path
     d="m 292.00175,261.41506 c -3.1,-2.6 -6,-3.2 -7,-1.6 -0.7,1.2 -3.4,0.3 -6,-2 -1.1,-0.9 -4,-2 -6.4,-2.3 -2.5,-0.3 -4.8,-1.2 -5.3,-2.1 -1.2,-2.2 -4.5,-2 -5.3,0.4 -0.3,1.1 -0.4,2.4 -0.1,2.8 0.7,1.1 -14.3,0.6 -15.5,-0.5 -0.6,-0.6 -0.4,-2.2 0.5,-4.4 0.8,-1.9 1.2,-4.9 0.9,-6.7 -0.3,-1.8 0,-3.2 0.5,-3.2 1,0 3.3,-6.5 3.3,-9.4 0,-2.9 1.3,-2.8 2.9,-4.1 1.6,-1.3 3.1,-3.3 3.4,-4.4 0.4,-1.7 -0.2,-2.2 -3.6,-3 -2.3,-0.6 -5.2,-1.5 -6.5,-2 -1.3,-0.5 -3.9,-1 -5.8,-1 -1.9,0 -3.5,-0.5 -3.5,-1 0,-0.5 -1,-0.8 -2.2,-0.5 -1.9,0.5 -2.5,0 -4,-3.5 -1,-2.2 -2.4,-4 -3.2,-4 -1.8,0 -1.8,-0.8 0,-4 1.9,-3.4 1.8,-4.8 -0.4,-5.5 -1.69999,-0.5 -2.79999,-2.7 -3.69999,-7.6 -0.2,-0.9 0.8,-2.6 2.19999,-3.9 2.8,-2.6 3.1,-4.5 1,-5.7 -0.8,-0.5 -1.59999,-1.9 -1.79999,-3.1 -0.2,-1.3 -0.9,-2.7 -1.6,-3.1 -0.8,-0.5 -1,-1.6 -0.6,-3 0.4,-1.3 0.2,-2.8 -0.6,-3.7 -1.1,-1.3 -1,-1.8 0.7,-3 1.1,-0.8 2,-2 2,-2.6 0,-0.7 0.4,-2.5 0.89999,-4 0.4,-1.5 0.5,-3.5 0,-4.5 -1.99999,-4.7 -2.39999,-8.8 -0.69999,-8.5 0.69999,0.1 1.19999,-0.2 1.19999,-0.8 0,-0.6 0.6,-0.7 1.8,0 2.9,1.5 7.7,-0.1 7.7,-2.7 0,-2.6 1,-2.8 2.1,-3.6 3.5,-2.5 3.6,-5.4 0.3,-7.1 -3.3,-1.7 -3.3,-1.8 -1.9,-4.6 0.7,-1.4 1.7,-1.8 3,-1.4 1.5,0.5 1.9,0.1 2,-1.7 0,-1.3 0.7,-3.4 1.5,-4.8 1.9,-3.3 1.9,-8.1 0,-10.6 -1.7,-2.3 -2,-5.4 -0.5,-5.4 1.5,0 0.8,-0.4 0.5,-0.9 -0.9,-1.4 2.1,-2.1 9,-2.1 6.9,0 6.5,0 7,3 0.3,1.7 1.1,3.3 1.6,3.6 0.6,0.4 0.8,-0.3 0.4,-1.9 -0.8,-3.1 0,-4 2.6,-2.7 1.7,0.9 1.8,0.8 1,-0.8 -0.7,-1.3 -0.6,-2.599999 0.4,-4.599999 1.2,-2.3 1.8,-2.6 3.3,-1.8 1,0.6 2.7,1 3.7,1 1.5,0 1.4,-0.3 -0.5,-2.1 -2.1,-2 -2.2,-2.2 -0.4,-3.4 1.7,-1.3 1.7,-1.4 0,-2 -1,-0.4 -1.8,-1.5 -1.8,-2.6 0,-1.1 -0.3,-1.799999 -0.8,-1.799999 -2.1,0.299999 -3.1,-0.3 -2.6,-1.6 0.3,-0.8 1.4,-1.5 2.5,-1.5 2.1,0 3.7,-2.8 2.3,-3.9 -0.5,-0.4 -1.7,-2 -2.6,-3.6 -2,-3.5 -5.4,-4.5 -6.1,-1.8 -0.3,1.1 -0.5,0.6 -0.6,-1.3 0,-1.7 0.6,-3.9 1.4,-5 1.5,-1.9 1.5,-1.9 0.9,0.3 -0.5,1.8 -0.1,2.3 1.9,2.8 1.4,0.3 2.9,0.4 3.5,0 0.5,-0.3 2.2,0 3.8,0.6 1.6,0.7 4.4,1.3 6.3,1.5 6.6,0.4 7.2,0.7 8.3,3.1 0.8,1.8 0.8,2.9 -0.2,4.4 -1.1,1.8 -1.1,1.9 0.8,1.4 1.3,-0.4 2.1,-0.2 2.1,0.5 0,0.7 0.4,0.9 1,0.5 0.5,-0.3 2.3,0.1 4,1 2.3,1.2 3.5,1.3 5.1,0.5 1.1,-0.6 2.5,-0.8 3,-0.5 1.8,1.1 1,5.299999 -1.5,7.299999 -2.8,2.2 -2.3,3.4 1.1,2.6 1.3,-0.3 3,0 3.9,0.7 1.2,1 1.8,0.9 3,-0.6 0.8,-1 1.5,-2.5 1.5,-3.1 0,-0.7 1.3,-1.2 3.2,-1.2 1.9,0 4,-1 6.5,-3.599999 1.9,-2 3.4,-3.9 3.4,-4.4 0,-0.5 1.2,-0.6 2.7,-0.3 2.5,0.5 2.5,0.6 0.8,1.4 -1.5,0.6 -1.1,0.8 1.5,0.5 2.9,-0.3 4,0.2 6.7,3.1 2.2,2.299999 3.8,3.299999 4.9,2.799999 1.8,-0.7 5.7,2.1 4.8,3.5 -0.3,0.5 -0.1,0.9 0.4,0.9 0.5,0 0.9,1 0.8,2.2 0,1.7 0.6,2.3 2.6,2.6 2.3,0.3 2.7,0.9 3.2,4.499999 0.3,2.3 0.8,5.7 1.2,7.5 0.5,2.3 0.2,3.8 -0.9,5 -0.8,0.9 -1.8,2.9 -2.2,4.2 -0.5,2.1 0,3.1 3.4,5.8 3.3,2.6 4.1,3.9 4.1,6.6 0,2.7 0.7,4.6 1.5,6.2 1,2 1.3,4.3 0.9,7.5 -0.4,2.9 -0.2,4.9 0.5,5.3 0.6,0.4 1.1,1.8 1.1,3.1 0,1.3 0.6,2.4 1.5,2.4 2.7,0 3.8,4.9 2.4,11 l -1.2,5.5 -2,-2.7 c -2.3,-3.2 -6.3,-3.8 -5.5,-0.8 0.4,1.6 -0.7,2.5 -5.9,5.1 -3.5,1.7 -6.4,3.5 -6.4,4 0,0.5 -1.1,1.1 -2.5,1.4 -1.4,0.3 -2.5,1.1 -2.5,1.6 0,0.5 -0.7,1 -1.5,1 -0.8,0 -1.5,0.4 -1.5,0.9 0,0.5 -1.8,1.2 -4,1.5 -2.4,0.4 -4.5,1.4 -5.2,2.6 -0.9,1.4 -1.9,1.8 -3.5,1.4 -1.3,-0.3 -2.3,-0.3 -2.3,0 0,1.8 3.3,6.6 5.1,7.6 1.7,0.9 2,1.7 1.5,4.1 -0.7,3.6 4.7,12.5 8.2,13.3 1.3,0.3 2.7,1.6 3.3,2.8 0.6,1.2 1.9,2.7 2.9,3.2 1,0.5 3.5,1.8 5.4,2.8 5.5,2.9 5.9,9.6 0.5,9.6 -5.4,0 -1.9,0.9 -2.1,2.7 -0.2,2 -1.5,3.3 -5.3,5.3 -2.7,1.5 -5.1,3.2 -5.3,3.8 -0.2,0.6 0.5,2.5 1.7,4.1 1.1,1.6 1.8,3.6 1.5,4.4 -0.3,0.8 0,1.8 0.5,2.1 1.4,0.9 1.4,5.5 0,5.5 -1.4,0 -1.3,-0.9 -1.6,-2 -0.4,-1.4 -1.4,-2 -3.3,-2 -1.9,0 -4,-0.5 -5.5,-1 -2.3,-0.9 -2.7,-0.7 -3.2,1 -0.4,1.5 -1.4,2 -3.9,2 -2.5,0 -5.6,1.1 -8.4,2.5 -5.7,2.9 -6.8,3 -8.9,1.1 -0.9,-0.8 -3.4,-1.6 -5.6,-1.7 -3.6,-0.3 -4,-0.1 -4,2.1 0,3.3 -1.5,3.5 -5,0.6 z"
     id="path39"
     style="fill:#8a7b82;fill-opacity:1" />
  <path
     d="m 282.20175,270.21506 c -0.4,-0.4 -0.7,-1.1 -0.7,-1.7 0,-0.6 0.5,-0.6 1.2,0.2 0.7,0.7 1,1.4 0.7,1.7 -0.3,0.3 -0.8,0.2 -1.2,-0.2 z"
     id="path38"
     style="fill:#8a7b82;fill-opacity:1" />
  <path
     d="m 84.901752,279.41506 c -1.6,-1.2 -1.7,-1.5 -0.3,-1.5 0.9,0 2.2,0.6 2.9,1.5 1.6,1.9 0,1.9 -2.6,0 z"
     id="path37"
     style="fill:#8a7b82;fill-opacity:1" />
  <path
     d="m 362.90175,282.81506 c -1.1,-0.4 -5.4,-0.5 -9.7,-0.2 -11.4,0.8 -19.4,-1.1 -23.6,-5.5 -1.8,-1.9 -3.1,-4.1 -2.8,-4.9 0.7,-1.7 0.1,-1.7 -3.3,0.1 -1.6,0.8 -3.1,1.2 -3.4,0.9 -0.3,-0.3 -2.6,-0.2 -5.2,0.2 -3.6,0.5 -4.9,1.2 -5.6,3.1 -0.7,1.8 -1.7,2.4 -3.9,2.4 -2.2,0 -3,-0.5 -3,-1 0,-0.5 -0.9,-1 -2,-1 -1.1,0 -2,-0.7 -2,-2 0,-2.4 -3.8,-2.8 -4.6,-0.5 -0.9,2.2 -2.5,1.8 -6.2,-1.6 -4.3,-3.9 -5.4,-9.7 -2.2,-11.7 1.8,-1.1 2.6,-0.9 5.5,1.3 4,3 6.9,2.9 7.3,-0.3 0.2,-1.7 1,-2.2 3.1,-2.2 2.1,0 3.4,0.7 4.1,1.5 1.8,2.2 5.4,1.8 11,-1 2.7,-1.4 6.5,-2.5 8.5,-2.5 2,0 3.5,-0.4 3.5,-1.6 0,-1.2 0.6,-1.5 2.2,-1 1.2,0.3 3.4,0.6 4.9,0.6 1.8,0 2.8,0.7 3.2,2 0.3,1.2 1.4,2 2.8,2 2.1,0 2.2,-0.3 1.6,-5.6 -0.4,-3.1 -1.6,-6.9 -2.6,-8.4 l -2,-2.8 3.8,-2.2 c 2.1,-1.2 4.4,-2.5 5.3,-2.9 0.9,-0.4 1.6,-2 1.8,-3.4 0.2,-1.8 0.9,-2.6 2.2,-2.6 1.3,0 2.5,-0.9 3.3,-2 1.3,-1.8 1.5,-1.9 2.1,-0.4 0.5,1.4 1.6,1.6 6.7,1.1 4.9,-0.5 6.6,-1.2 9,-3.6 1.6,-1.6 2.9,-3.9 2.9,-5.1 0,-2 0.4,-2.1 3.8,-1.5 9.1,1.5 10.3,1.9 10.8,2.7 0.8,1.3 7.8,1.1 9.1,-0.2 0.8,-0.8 1.3,-0.8 1.8,0 0.4,0.6 1.5,1.1 2.5,1.1 2.2,0 3,1.7 2.4,5.2 -0.3,1.7 0.4,4 2.1,6.7 2.8,4.4 3.6,11.1 1.3,11.3 -0.7,0 -2.5,0 -4.1,0 -3.1,-0.2 -5.7,1.5 -5.7,3.6 0,2.1 0.9,1.4 1.9,1.4 2.7,0 3.6,1.9 1.7,3.3 -1.1,0.8 -1.5,2.5 -1.3,5.8 0.3,4.3 0,4.8 -3.5,7.4 -2.1,1.6 -3.8,3.7 -3.8,4.6 0,0.9 -0.8,1.8 -2.9,1.8 -2.1,0 -3.2,0.5 -3.6,1 -0.4,0.5 -2.9,1 -5.6,1 -4.4,0 -5.4,0.4 -7.9,3.2 -3,3.3 -7.3,4.3 -11.5,2.7 z"
     id="path36"
     style="fill:#8a7b82;fill-opacity:1" />
  <path
     d="m 86.601752,287.31506 c -1.5,-3.2 -0.7,-4.4 1.5,-2.2 1.1,1.1 1.3,2.1 0.7,3.2 -0.8,1.4 -1.1,1.3 -2.1,-1 z"
     id="path35"
     style="fill:#8a7b82;fill-opacity:1" />
  <path
     d="m 270.50175,301.11506 c -0.8,-1 -1.3,-2.5 -1.1,-3.5 0.2,-1.2 -0.3,-1.8 -1.5,-1.8 -2.5,0 -5.3,-3.4 -5.3,-6.5 0,-3.1 -0.4,-2.5 -0.9,-2.5 -1.7,0 -6.3,5.1 -5.8,6.4 0.3,0.7 -0.9,2.8 -2.5,4.5 -2.4,2.4 -3.4,2.9 -4.4,2 -1,-0.8 -2.5,-0.8 -5.8,0 -4.8,1.2 -7.6,0.7 -7.6,-1.4 0,-2.1 -0.5,-1.5 -1.2,-1.7 -0.6,-0.2 -1.3,-2.1 -1.5,-4.3 -0.2,-2.1 -0.7,-4.2 -1.1,-4.7 -1.3,-1.3 -6.89999,1.1 -8.69999,3.8 -0.9,1.3 -2.5,2.4 -3.7,2.4 -2.1,0 -2.1,0 -0.4,-2 1.2,-1.3 1.6,-2.8 1.2,-4.4 -0.3,-1.4 -0.2,-2.8 0.4,-3.1 0.6,-0.3 0.8,-1.1 0.4,-1.6 -0.3,-0.5 0.8,-1.7 2.5,-2.7 1.7,-1 3.1,-2.3 3.2,-3 0,-0.7 0.2,-1.7 0.3,-2.1 0,-0.5 2.49999,-3 5.39999,-5.7 3.2,-2.9 4.8,-5 4.2,-5.5 -0.8,-0.5 -0.8,-1.2 0.1,-2.7 1.1,-1.7 1.6,-1.8 4.2,-0.9 2.4,0.9 3.2,0.8 4.1,-0.4 0.9,-1.2 3.2,-1.5 10.9,-1.4 7.4,0.1 9.8,-0.2 9.8,-1.1 0,-0.9 -0.7,-1.4 -1.5,-1.6 -1.1,-0.2 -1.2,-0.7 -0.5,-1.8 0.9,-1.3 1.2,-1.3 2.4,0.4 0.9,1.1 3.2,2.1 5.9,2.4 2.6,0.3 5.2,1.3 6.2,2.4 0.9,1 2.4,1.9 3.2,1.9 0.8,0 1.3,0.7 0.8,2.8 -1.4,5.7 -1.2,7.7 1.1,8.1 1.2,0.2 3.2,1.4 4.4,2.8 2.6,2.7 6.4,3.2 7.3,0.9 1.3,-3.4 2.6,-1.2 2.4,4 -0.1,3 -0.4,5.5 -0.7,5.5 -0.2,0 -1.2,-0.7 -2.1,-1.5 -1.5,-1.4 -1.8,-1.4 -3,0 -1,1.2 -1,2.4 -0.2,5 1.2,3.8 0.9,4.2 -1.4,2 -1.1,-1.1 -2.1,-1.2 -4,-0.5 -3.7,1.4 -4.3,1.2 -5,-1.4 -0.8,-3.4 -3.8,-2.7 -4.3,0.9 -0.2,1.6 -1.5,4.2 -2.8,5.8 -1.7,2.1 -2.3,3.7 -1.9,5.3 0.7,2.8 0.5,2.9 -1.5,0.6 z"
     id="path34"
     style="fill:#8a7b82;fill-opacity:1" />
  <path
     d="m 354.50175,309.91506 c 0,-0.5 0.7,-1 1.6,-1 1.3,0 1.5,-0.7 1,-3.2 -0.4,-1.8 -1.3,-3.6 -2.2,-4.1 -1.2,-0.7 -1.3,-1.2 -0.4,-2.3 0.9,-1.1 0.8,-1.4 -0.4,-1.4 -1.2,0 -2.2,-2.5 -0.6,-3.5 1.7,-1 1.1,-2.5 -1,-2.5 -3.8,0 -2,-4 3.6,-7.7 1.9,-1.3 2.9,-1.3 5.9,-0.3 2,0.6 4.2,1 4.9,0.7 0.7,-0.3 1.9,0 2.5,0.7 0.9,0.9 2.1,0.1 5.1,-3.1 3.6,-3.9 4.3,-4.2 8.9,-4.2 4.6,0 5.3,-0.5 5.6,-1 0.3,-0.5 1.9,-1 3.6,-1 1.7,0 2.9,-0.5 2.9,-1.9 0,-2.9 1.7,-3.4 3.9,-1.1 2.2,2.3 2,3.2 1.9,6.6 0,2.5 -0.3,4.3 -0.6,4.1 -0.3,-0.3 -1.8,0.6 -3.4,2 -1.6,1.4 -3.8,2.5 -4.8,2.5 -2.3,0 -3.6,3.1 -1.8,4.5 2,1.6 1.6,5.9 -0.6,6.4 -2,0.4 -6.6,4.2 -5,4.2 1.6,0 1.3,5.5 0.2,6.6 -1.1,1.1 -1.4,0.2 -2.2,-0.5 -0.8,-0.7 -2.4,-0.9 -3.4,-0.6 -1.4,0.4 -2.7,-0.2 -4.5,-2.1 l -2.5,-2.7 -1.2,2.7 c -1.1,2.5 -3.3,3.3 -7.6,2.8 -0.6,0 -1.5,0.3 -1.8,0.9 -0.8,1.3 -7.5,1.3 -7.5,0 z"
     id="path33"
     style="fill:#8a7b82;fill-opacity:1" />
  <path
     d="m 373.70175,321.71506 c -2.5,-1.2 -2.6,-1.6 -1.4,-3.6 0.7,-1.1 1.3,-0.9 3,0.9 3.4,3.7 2.8,4.8 -1.6,2.7 z"
     id="path32"
     style="fill:#8a7b82;fill-opacity:1" />
  <path
     d="m 377.10175,328.01506 c -0.4,-0.7 -0.5,-1.5 -0.2,-1.9 0.9,-0.9 1.9,0.4 1.4,1.9 -0.3,1 -0.6,1 -1.2,0 z"
     id="path31"
     style="fill:#8a7b82;fill-opacity:1" />
  <path
     d="m 371.50175,333.31506 c -0.7,-0.9 -1.4,-3.9 -1.5,-6.7 -0.2,-4.7 0,-5 1.2,-3.2 0.8,1.1 1.3,3.3 1.2,5 -0.1,1.7 0.1,3.6 0.5,4.3 1.2,2 0,2.4 -1.4,0.6 z"
     id="path30"
     style="fill:#8a7b82;fill-opacity:1" />
  <path
     d="m 380.00175,333.31506 c -2.6,-3.5 -2.7,-3.5 -0.4,-2.2 5.3,3 7.5,5.8 4.5,5.8 -3,0 -2.6,-1.6 -4.1,-3.6 z"
     id="path29"
     style="fill:#8a7b82;fill-opacity:1" />
  <path
     d="m 387.40175,346.31506 c -2.2,-2.4 -2.2,-2.5 -0.3,-1.6 2.5,1.3 5.1,4.2 3.7,4.2 -1.4,0 -2,-1.2 -3.4,-2.6 z"
     id="path28"
     style="fill:#8a7b82;fill-opacity:1" />
  <path
     d="m 388.40175,351.11506 c -2.7,-1.8 -8.5,-8.2 -7.4,-8.2 1.1,0 2.9,2.2 5.7,5 2.8,2.8 4.9,5 4.7,4.9 -0.2,0 -1.5,-0.8 -3,-1.8 z"
     id="path27"
     style="fill:#8a7b82;fill-opacity:1" />
  <path
     d="m 395.50175,354.91506 c 0,-0.5 0.7,-0.7 1.5,-0.4 0.8,0.3 1.5,0.8 1.5,1 0,0.2 -0.7,0.4 -1.5,0.4 -0.8,0 -1.5,-0.4 -1.5,-1 z"
     id="path26"
     style="fill:#8a7b82;fill-opacity:1" />
  <path
     d="m 409.00175,361.91506 c -0.3,-0.5 -0.1,-1 0.4,-1 0.5,0 1.1,0.5 1.1,1 0,0.5 -0.2,1 -0.4,1 -0.2,0 -0.7,-0.5 -1.1,-1 z"
     id="path25"
     style="fill:#8a7b82;fill-opacity:1" />
  <path
     d="m 412.70175,363.11506 c -1.1,-0.7 -1,-1.1 0,-2 1.5,-1.3 7.2,-0.2 7.2,1.4 0,1.6 -5.6,1.7 -7.3,0.6 z"
     id="path24"
     style="fill:#8a7b82;fill-opacity:1" />
  <path
     d="m 425.50175,362.61506 c -6.5,-4.7 -15.2,-7.4 -18.7,-5.8 -2.7,1.2 -4.3,0.3 -4.3,-2.4 0,-0.6 -1.5,-1.8 -3.3,-2.8 -4.2,-2.3 -12.9,-10.2 -12,-11 0.3,-0.3 1.5,-0.6 2.5,-0.6 2.9,0 2.2,-1.3 -3.7,-7.2 -5.9,-5.9 -5.5,-6.1 -5.5,-9.1 0,-3 -0.7,-4.1 -4.4,-7.2 -5.8,-4.7 -7.8,-4.6 -9.4,0.4 -0.7,2.2 -2.1,5.4 -3.2,7.2 l -2,3.2 -1.1,-2.4 c -0.6,-1.3 -1.9,-3.8 -3,-5.4 -2.7,-4.2 -2.6,-7.5 0.1,-7.5 2.7,0 4.8,-0.5 8,-1.2 4.2,-0.9 6,-1.7 6.4,-3.1 0.6,-1.8 0.7,-1.8 2.6,0.3 1.1,1.2 3,2.1 4.2,1.9 1.2,-0.1 2.9,0.1 3.9,0.5 2.8,1.2 4.8,-0.1 4.6,-3.2 -0.3,-4.3 1,-7.1 3.5,-7.5 1.8,-0.3 2.2,-1 2.4,-4.1 0.1,-2.1 -0.2,-3.8 -0.8,-3.8 -0.6,0 -1,-0.7 -1,-1.5 0,-0.8 0.8,-1.5 1.9,-1.5 1.1,0 3,-0.9 4.4,-2 1.4,-1.1 3,-2 3.6,-2 0.6,0 1.1,-1.1 1.1,-2.5 0,-1.4 0.3,-2.5 0.8,-2.5 0.4,0 3.1,1.8 6,4 2.9,2.2 5.6,4 6,4 0.4,0 1.6,1.3 2.5,3 1.2,2 2.6,3 4.2,3 1.6,0 3.8,0.9 5.5,1.9 3.9,2.4 14.3,1.8 17.4,-0.9 3,-2.6 4.3,-1.5 5.7,5.1 1,4.9 1.6,6.1 3.6,6.6 1.6,0.4 2,0.8 1.2,1.4 -0.7,0.4 -1,1.9 -0.7,3.3 0.8,4 -0.7,5.5 -2.9,2.9 -1.5,-1.8 -3.3,-2.3 -9.6,-2.7 -4.4,-0.3 -7.8,-0.2 -7.8,0.3 0,1.3 -13.9,0.7 -15.3,-0.7 -1.4,-1.4 -4.4,-1.5 -5.2,-0.1 -0.3,0.5 -1.9,1 -3.4,1 -1.5,0 -3.2,0.8 -4.1,2.5 l -1.3,2.5 -2.1,-2 c -1.2,-1.1 -3,-2 -4.1,-2 -3.8,0 -4.6,1.4 -4.2,8.1 0.3,5.9 0.5,6.5 3.1,7.7 1.5,0.7 2.8,1.9 2.8,2.7 0,0.8 0.7,1.6 1.4,1.9 0.7,0.3 1.7,2.1 2.1,3.9 0.5,2.5 2.5,5.1 7.8,10 10.6,9.8 11.8,10.8 13.3,10.8 1.5,0 1.3,0.6 1.3,1.4 0,0.8 0.9,2.6 2.1,4 2.6,3.3 2.4,3.3 -3.1,-0.6 z"
     id="path23"
     style="fill:#8a7b82;fill-opacity:1" />
  <path
     d="m 414.70175,367.11506 c -1.2,-0.2 -2.2,-0.8 -2.2,-1.3 0,-0.8 12.8,-0.2 13.8,0.6 0.5,0.4 -9.2,1 -11.6,0.6 z"
     id="path22"
     style="fill:#8a7b82;fill-opacity:1" />
  <path
     d="m 432.40175,367.11506 c -1.2,-1.6 -1.2,-1.6 0.4,-0.4 1.7,1.3 2.2,2.1 1.4,2.1 -0.8,0 -1,-0.8 -1.8,-1.8 z"
     id="path21"
     style="fill:#8a7b82;fill-opacity:1" />
  <path
     d="m 406.00175,370.91506 c -0.8,-1.3 1.5,-2.4 2.6,-1.3 0.6,0.6 0.4,1.2 -0.6,1.6 -0.8,0.3 -1.8,0.2 -2.1,-0.3 z"
     id="path20"
     style="fill:#8a7b82;fill-opacity:1" />
  <path
     d="m 417.10175,372.01506 c -0.7,-1.1 5.6,-1.9 8.1,-1.1 1.3,0.5 1,0.8 -1.5,1.3 -4.4,0.9 -5.9,0.8 -6.5,-0.2 z"
     id="path19"
     style="fill:#8a7b82;fill-opacity:1" />
  <path
     d="m 431.00175,374.91506 c -0.7,-1.2 1.9,-1.2 5.5,0 2.2,0.7 2.1,0.8 -1.2,0.9 -2,0 -4,-0.4 -4.3,-0.9 z"
     id="path18"
     style="fill:#8a7b82;fill-opacity:1" />
  <path
     d="m 420.80175,376.31506 c 0.3,-0.3 1.2,-0.4 1.9,0 0.8,0.3 0.6,0.6 -0.6,0.6 -1.1,0 -1.6,-0.2 -1.3,-0.5 z"
     id="path17"
     style="fill:#8a7b82;fill-opacity:1" />
  <path
     d="m 128.00176,380.91506 c -0.3,-0.5 0,-1 0.9,-1 0.9,0 1.6,0.5 1.6,1 0,0.5 -0.4,1 -0.9,1 -0.5,0 -1.2,-0.5 -1.6,-1 z"
     id="path16"
     style="fill:#8a7b82;fill-opacity:1" />
  <path
     d="m 295.30175,384.11506 c -3.1,-0.4 -3.8,-2.2 -0.8,-2.2 3,0 2.3,-0.5 2.6,-1.1 0.5,-0.8 1,-0.6 1.7,0.6 1.2,2.2 0,3.2 -3.5,2.7 z"
     id="path15"
     style="fill:#8a7b82;fill-opacity:1" />
  <path
     d="m 86.501752,319.01506 c 0,-1.7 -1.8,-2.1 -2.4,-0.6 -0.3,0.9 0,1.5 0.9,1.5 0.9,0 1.5,-0.4 1.5,-0.9 z"
     id="path14"
     style="fill:#8a7b82;fill-opacity:1" />
  <path
     d="m 143.80176,386.31506 c -1.7,-1.2 -2.6,-1.3 -4.3,-0.4 -1.8,1 -2.5,0.8 -4.1,-0.9 -1.1,-1.1 -2.4,-2.1 -3,-2.1 -0.6,0 -0.8,-0.7 -0.5,-1.5 0.6,-1.6 -2.8,-4 -4.3,-3.1 -0.5,0.3 -1.4,-0.1 -2.1,-1 -0.7,-0.8 -2.1,-1.5 -3.1,-1.5 -1,0 -1.90001,-0.4 -1.90001,-0.9 0,-0.8 -5.2,-3.1 -7.1,-3.1 -1.9,0 -0.9,0.7 -0.9,1.5 0,0.8 -1.1,1.5 -3.9,1.5 -2.8,0 -4.2,-0.4 -4.5,-0.8 -0.3,-0.5 -1.8,-0.6 -3.5,-0.4 -2.299998,0.3 -3.099998,0 -3.599998,-1.7 -0.7,-2.2 -1.3,-2.4 -5.6,-2.1 -1.8,0.1 -3.1,-0.6 -4.3,-2.4 -0.9,-1.4 -2.1,-2.6 -2.7,-2.6 -0.6,0 -2.7,-1.1 -4.7,-2.3 -2.1,-1.3 -4.3,-2.2 -4.9,-1.9 -1.5,0.5 -2.7,-1.4 -1.4,-2.2 1.4,-0.9 1.3,-3.5 -0.2,-3.5 -0.7,0 -2.1,-0.7 -3.1,-1.5 -1.8,-1.4 -1.8,-1.5 1.1,-3.9 2.1,-1.8 3.9,-5.1 6.1,-11.3 3.6,-10.3 5.6,-17.4 5.3,-18.8 -0.1,-0.5 0.2,-2.6 0.8,-4.5 0.6,-1.9 2,-6.8 3.2,-10.8 1.2,-4 2.4,-7.2 2.8,-7.2 0.4,0 1.5,1.3 2.6,2.9 1.1,1.6 2.1,2.8 2.4,2.5 0.7,-0.7 -4,-7.5 -5.9,-8.5 -2.2,-1.2 -2.6,-3 -0.6,-3 2,0 3.8,-5.7 2.7,-8.5 -0.6,-1.5 -0.5,-2.7 0.3,-3.4 0.8,-0.8 0.7,-1.1 -0.4,-1.1 -2.2,0 -9.6,-6.6 -10.5,-9.3 -0.4,-1.2 -1.6,-3.5 -2.7,-5 l -2,-2.8 2.2,-2.4 c 2.2,-2.3 2.2,-2.4 0.2,-3.6 -2,-1.3 -1.9,-3.7 0.2,-5.1 0.7,-0.4 0.4,-0.7 -0.6,-0.8 -0.9,0 -2,0.4 -2.3,1 -1,1.7 -2.5,1.1 -3.4,-1.2 -0.5,-1.3 -0.5,-2.7 0.1,-3.5 1.5,-1.9 0,-3.4 -2.8,-2.7 -1.7,0.4 -2.6,0.1 -3,-1 -0.7,-1.7 -3.4,-2.2 -3.4,-0.6 0,1.6 -0.5,1 -1.1,1 -0.6,0 -0.8,-0.7 -0.5,-1.7 0.4,-1 -0.2,-2.4 -1.4,-3.5 -1.1,-1 -2,-1.5 -2,-1.1 0,0.4 -0.3,0.3 -0.8,-0.3 -0.4,-0.6 -3,-2.3 -5.7,-3.7 -3.599999,-1.9 -5.299999,-2.3 -6.199999,-1.6 -1.8,1.5 -3,0.5 -3.7,-3 -0.4,-1.8 -1.4,-3.2 -2.9,-3.7 -1.9,-0.7 -1.6,-0.9 2,-1.2 2.8,-0.3 4.2,-0.8 3.9,-1.6 -0.2,-0.7 -1.3,-1.2 -2.3,-1.2 -1.1,0 -2.1,-0.8 -2.3,-1.8 -0.3,-1.5 0,-1.7 1.9,-1.1 1.5,0.5 2,0.3 1.5,-0.4 -0.4,-0.6 -1.8,-1.1 -3.1,-1.1 -1.3,0 -2.4,-0.6 -2.4,-1.9 0,-3.5 2.8,-4.6 12,-4.7 4.799999,0 9.299999,-0.5 10.099999,-1 0.8,-0.5 3.1,-1 5.2,-1 3.6,0 4.1,0.4 6.4,4.8 2.5,4.7 3.6,5.6 4.8,3.7 0.9,-1.4 5.3,-1.2 5.8,0.2 0.3,1 1,0.9 3.2,-0.2 2.5,-1.3 2.8,-1.3 3.7,0.2 0.6,1 2.2,1.7 4,1.7 1.8,0 2.9,-0.3 1.9,-1.4 -0.7,-0.8 -1.1,-4.3 -0.9,-8.4 0.1,-4.1 -0.3,-7.6 -0.9,-8.4 -1.1,-1.3 -2.5,-10.8 -1.5,-10.8 1,0 1.4,0.6 2.7,1.2 1.2,0.7 3.5,1.2 5.2,1.2 2.499998,0 2.999998,0.4 3.099998,2.5 0.2,5 0.4,6.1 1.3,5.5 0.5,-0.3 2,-0.2 3.2,0.4 8.2,3.3 13.1,4.2 16.00001,3 2.1,-0.9 2.6,-1.4 1.6,-2 -0.9,-0.6 -1,-1.5 -0.3,-3.5 1.1,-3.1 6.9,-5.8 14.8,-6.9 5.3,-0.7 10.9,-5.2 11.3,-9 0.1,-1.1 0.4,-4.1 0.6,-6.8 0.6,-7 2.7,-9.5 8.4,-10.2 2.6,-0.3 5.6,-0.8 6.5,-1 1.4,-0.3 1.8,0.4 1.8,3.6 0,4.9 2.9,8.2 6.8,7.7 2.3,-0.3 2.7,0.1 3.2,2.6 0.4,2.1 1.2,3.1 3,3.5 1.6,0.4 2.6,1.4 2.8,2.7 0.2,1.7 1.1,2.2 4,2.5 3.6,0.3 3.7,0.4 4,5 0.3,4.4 0.5,4.7 3.5,5.2 1.8,0.3 4.1,0.4 5.2,0.3 1.4,-0.2 2.1,0.4 2.3,2 0.2,1.2 0.9,2.2 1.6,2.2 0.7,0 3,1.7 5.2,3.9 4,3.9 8.8,5.4 19.09999,6.1 0.7,0 2,1.9 3,4 1.6,3.8 2,4 7.2,4.6 3,0.4 7.8,1.3 10.5,2.1 2.8,0.8 5.6,1.7 6.2,1.9 2,0.6 1.5,2.1 -1.8,4.8 -1.6,1.4 -3,3.4 -3,4.4 0,2.3 -2.1,8.5 -3.1,9.2 -0.4,0.3 -1,2.8 -1.3,5.5 -0.9,8 -1.8,12.5 -2.7,13 -0.4,0.3 -2,0 -3.4,-0.7 -2.2,-1 -2.8,-0.9 -4,0.7 -0.8,1.1 -1.5,2.9 -1.5,4 0,1.2 -2,3.7 -4.5,6 -2.69999,2.3 -4.49999,4.8 -4.49999,6 0,1.2 -1,2.6 -2.5,3.3 -2.9,1.3 -4.8,5.6 -4,8.8 0.3,1.3 0,2.7 -0.9,3.4 -2.4,2 -1.8,4 1.3,4 3.1,0 3.7,-1 5.4,-3 1.4,-1.7 3.59999,-3 4.69999,-3 1.7,0 2.1,0.6 2.1,3.4 0,2.8 0.7,4.1 1.5,4.9 2.1,2.1 1.9,3.6 -0.5,3.6 -2.4,0 -2.6,3.5 0.5,8.5 1.4,2.2 2.5,4.8 2.5,5.7 0,2 -2.9,3.8 -6,3.8 -3.09999,0 -3.69999,2.6 -1.8,4.8 0.8,0.9 1.7,2.5 2.1,3.5 0.4,1 1.3,1.8 2.2,1.8 2,0 1.9,1.5 0,4.9 -1.3,2.2 -1.4,3.4 -0.5,6.8 0.9,3.3 1.8,4.4 4.8,5.7 2.1,0.9 5,1.7 6.6,1.9 l 2.9,0.3 -2.2,2.7 c -1.2,1.5 -2,3.5 -1.9,4.5 0.2,1.3 -0.3,1.7 -1.9,1.5 -1.7,-0.2 -2.2,0.2 -2.2,1.8 0,1.6 -0.8,2.4 -1.8,2.7 -1,0.3 -2.3,1.5 -3.1,2.5 -0.8,1 -1.9,1.8 -2.7,1.8 -0.8,0 -1.7,1 -2,2.3 -0.69999,2.9 -5.29999,4.8 -12.09999,5.2 -3.6,0.2 -5.3,-0.1 -5.7,-1.1 -0.3,-0.7 -2.1,-1.7 -4.1,-2 -2.6,-0.5 -3.6,-1.2 -3.6,-2.6 0,-1.4 -0.7,-1.9 -2.9,-1.9 -2.2,0 -3.2,-0.5 -3.6,-1 -0.4,-0.5 -0.1,-1 0.5,-1 0.6,0 0.8,-0.5 0.5,-1 -0.4,-0.6 -1.2,-0.4 -2.1,0.5 -1.8,1.8 -7,2 -7.6,0.3 -0.2,-0.6 -1.3,-1.3 -2.3,-1.5 -1,-0.2 -2.5,-0.5 -3.3,-0.7 -0.7,-0.2 -1.7,-0.9 -2.2,-1.7 -0.7,-1.1 -2.1,-0.6 -6.8,2.3 -3.3,2 -6.8,3.7 -7.9,3.7 -3.1,0 -6,5 -6.8,11.7 -0.5,4 -0.3,6.3 0.4,6.8 2.1,1.3 1,2.1 -3.2,2.2 -2.3,0 -5.4,0.4 -6.8,0.7 -1.5,0.4 -3.3,0 -4.7,-0.9 z"
     id="path13"
     style="fill:#8a7b82;fill-opacity:1" />
  <path
     d="m 272.90175,418.51506 c -0.3,-0.9 -1.4,-1.6 -2.4,-1.6 -2.8,0 -4.5,-2.7 -3,-4.5 1,-1.3 0.9,-1.5 -0.9,-1.5 -1.8,0 -2.7,-1 -0.9,-2.9 1,-1 0.9,-1.5 -0.6,-2.3 -1.4,-0.8 -1.6,-1.3 -0.6,-2.5 1,-1.2 0.9,-1.7 -0.4,-2.7 -1.6,-1.2 -1.7,-5 -0.2,-9.4 0.9,-2.7 9.2,-7.6 11.7,-6.9 1.5,0.4 1.8,-0.2 1.8,-3.5 0,-3.3 0.4,-3.9 1.2,-3.6 0.7,0.2 1.8,4.7 2.6,11.3 1.2,9.6 1.2,11.3 -0.1,13.9 -1.3,2.6 -2.3,6.4 -2.8,11.2 0,0.7 -0.5,1.2 -0.9,1.2 -0.4,0 -0.9,1 -1.1,2.2 -0.4,2.7 -2.6,3.6 -3.4,1.4 z"
     id="path12"
     style="fill:#8a7b82;fill-opacity:1" />
  <path
     d="m 367.50175,433.91506 c 0,-0.5 0.5,-1 1,-1 0.5,0 1,0.5 1,1 0,0.5 -0.5,1 -1,1 -0.5,0 -1,-0.5 -1,-1 z"
     id="path11"
     style="fill:#8a7b82;fill-opacity:1" />
  <path
     d="m 257.50175,480.41505 c 0,-0.9 0.6,-1.5 1.2,-1.2 1.4,0.5 1.3,2.1 -0.2,2.6 -0.5,0.2 -1,-0.4 -1,-1.3 z"
     id="path10"
     style="fill:#8a7b82;fill-opacity:1" />
  <path
     d="m 261.90175,482.61505 c -0.4,-1.2 -1.5,-3.3 -2.5,-4.7 -1.7,-2.4 -1.7,-3 -0.3,-10.5 1.1,-5.5 1.2,-8.1 0.5,-8.3 -1.2,-0.4 -1.5,-4.5 -0.4,-5.5 1.1,-1.1 1.3,-5.6 0.3,-6.2 -0.5,-0.3 -0.9,-1.4 -0.9,-2.4 0,-1 -1,-2.69999 -2.3,-3.69999 -2.3,-1.9 -2.7,-4.3 -1.3,-10.1 0.9,-4.1 2.4,-5.1 1.8,-1.3 -0.5,3.7 2.4,4.6 7.2,2.1 4.3,-2.2 9.6,-6.6 9.6,-8 0,-1.4 1.5,-1.3 5.7,0.9 2.1,1.1 3.3,2 2.8,2 -0.5,0 -0.4,0.5 0.2,1.1 0.6,0.6 0.9,1.7 0.6,2.5 -0.3,0.8 -0.1,1.4 0.4,1.4 0.5,0 1.7,2.5 2.7,5.6 1.8,5.59999 1.8,5.69999 -0.4,8.59999 -1.8,2.5 -2,3.4 -1.1,5.4 0.6,1.4 0.9,4.7 0.6,7.6 -0.3,2.9 -0.7,6.8 -0.9,8.7 -0.3,3.3 -1.2,7.8 -2.2,10.8 -0.3,1 -1.1,0.8 -3.3,-0.7 -3.5,-2.5 -7.2,-1.8 -7.2,1.2 0,3.4 -1.6,4.99999 -5.3,5.29999 -2.9,0.2 -3.7,-0.1 -4.2,-1.89999 z"
     id="path9"
     style="fill:#8a7b82;fill-opacity:1" />
  <path
     d="m 339.50175,354.41506 c 0,-0.8 -0.7,-1.5 -1.5,-1.5 -0.8,0 -1.5,0.7 -1.5,1.5 0,0.8 0.7,1.5 1.5,1.5 0.8,0 1.5,-0.7 1.5,-1.5 z"
     id="path8"
     style="fill:#8a7b82;fill-opacity:1" />
  <path
     d="m 341.50175,405.41506 c 0,-0.8 -0.7,-1.5 -1.5,-1.5 -0.8,0 -1.5,0.7 -1.5,1.5 0,0.8 0.7,1.5 1.5,1.5 0.8,0 1.5,-0.7 1.5,-1.5 z"
     id="path7"
     style="fill:#8a7b82;fill-opacity:1" />
  <path
     d="m 408.60175,503.11504 c -1.2,-2.3 -0.3,-6.3 1.8,-7.9 1,-0.7 1.6,-2.9 1.6,-6 0,-4 0.5,-5.1 2.4,-5.99999 4.2,-2.1 4.5,-3 2.4,-6.5 -1.1,-1.8 -2.3,-4.9 -2.6,-6.8 -0.3,-1.9 -1.9,-5.2 -3.3,-7.4 -1.5,-2.1 -2.8,-5 -3,-6.4 -0.2,-1.4 -1.1,-3.6 -2,-4.9 -1.7,-2.4 -4.2,-3.2 -4.2,-1.4 0,1.8 -1.1,1 -2.5,1 -1.4,0 -2.5,-0.5 -2.5,-1.1 0,-0.6 -1.6,-1.7 -3.6,-2.6 -2.9,-1.2 -3.5,-1.9 -3.2,-3.7 0.2,-1.19999 -0.3,-3.59999 -1.3,-5.19999 -1.7,-3 -2.5,-3.2 -8.3,-2.1 -2.3,0.5 -2.7,0.3 -2.2,-1.1 1,-2.6 -1.2,-4.4 -4.5,-3.7 -2.2,0.4 -2.9,0.2 -2.9,-0.9 0,-1.1 -1.4,-3.4 -3.1,-5.7 -2.3,-3.2 -3.6,-4.1 -5.1,-3.7 -1.1,0.3 -3.2,0 -4.6,-0.4 -1.7,-0.6 -2.9,-0.6 -3.6,0 -1.7,1.7 -4.4,1.2 -4.9,-0.9 -0.3,-1.1 -1.7,-2.3 -3.4,-2.6 -3.1,-0.8 -11.1,-7.5 -13.1,-11 -0.7,-1.2 -2.5,-2.8 -4.2,-3.5 -1.6,-0.7 -3.7,-2.6 -4.6,-4.1 -2.2,-3.8 -6,-6.1 -9.6,-6 -2.5,0 -2.9,-0.2 -2.4,-1.7 0.7,-2.1 -3.8,-8 -6.1,-8 -2.3,0 -1.4,-0.9 -1.4,-1.9 0,-1 -0.8,-2 -2.2,-2.2 -1.9,-0.3 -2.2,-0.8 -1.9,-3.6 0.2,-2.1 -0.6,-4.9 -2.2,-7.9 -1.4,-2.5 -2.6,-5.7 -2.6,-7.1 0,-2.5 -2.6,-8.9 -3.9,-9.7 -0.4,-0.2 -2,-0.7 -3.6,-1 -1.6,-0.3 -4.7,-1.8 -6.9,-3.4 -4.6,-3.3 -9.6,-5.2 -13.5,-5.2 -3.9,0 -5.6,2.8 -12,11.1 -2.5,3.3 -10.8,5.9 -12.1,3.9 -0.5,-0.8 -0.1,-2.3 1.1,-3.8 2.8,-3.5 2.4,-5.2 -1,-5.2 -8.5,0 -14.1,-7.3 -10,-13.1 2.1,-2.9 1.7,-5.9 -0.7,-5.9 -2.4,0 -1.8,-1.1 -2.3,-2.4 -0.5,-1.3 -1.4,-2.7 -2,-3.1 -1.6,-1 -0.2,-2.5 2.3,-2.6 3.2,0 6.2,-2.2 6.2,-4.5 0,-2.3 -1.2,-4.1 -2.8,-6.7 -1.5,-2.6 -2.8,-5.2 -2.8,-5.8 0,-1 2.6,-1.5 6.2,-1.1 0.9,0 3.4,-0.3 5.5,-0.9 2.5,-0.7 4.1,-0.7 4.7,0 0.6,0.7 1.5,1 2.2,1 1.9,0 7.5,-6.3 7.2,-8 -0.3,-1.4 2.5,-5 3.7,-5 1.2,0 0.5,0.9 0.5,2 0,2.6 3,6 5.2,6 2.2,0 1.5,0.5 1.2,1.4 -0.6,1.6 2.4,5.6 4.3,5.6 1.9,0 1.2,-1.1 1.1,-3 -0.1,-1.9 0.6,-3.8 2,-5.3 1.2,-1.3 2.2,-3.6 2.2,-5 0,-3.2 1.6,-3.6 2.5,-0.6 0.6,1.9 1.2,2 5.1,1.4 2.9,-0.4 4.4,-0.3 4.4,0.4 0,0.7 0.9,1.1 2,1.1 2.3,0 2.4,-0.7 1,-4.6 -1.1,-2.8 0.2,-5.6 1.5,-3.5 0.4,0.6 1.6,1.1 2.7,1.1 1.1,0 2,-0.6 1.8,-2.2 -0.3,-4.3 0,-5.8 1.5,-5.8 1.5,0 1.5,0.5 1.5,1 0,0.5 1.8,1 4,1 3.4,0 4.2,-0.4 5,-2.5 0.9,-2.5 2.9,-3.1 8.9,-2.7 1.3,0 3.2,-0.3 4.2,-0.9 1,-0.6 1.9,-0.6 1.9,0 0,0.6 1.3,2.4 2.9,4.2 3.4,3.9 9.9,5.8 19.5,5.9 h 5.9 c 0,0 -2.2,2.1 -2.2,2.1 -2.4,2.2 -3,7 -0.9,7 0.8,0 1.3,1.5 1.3,4.1 0,2.6 0.7,4.6 1.7,5.3 1.5,1.1 1.5,1.3 -0.1,2.3 -1.1,0.7 -2.3,0.8 -3.4,0.1 -2,-1.1 -3.7,-0.3 -3.7,1.7 0,2 -1,1.4 -2.4,1.4 -1.4,0 -2.7,0.5 -3.1,1 -0.3,0.6 -2.5,2 -4.8,3.1 -3.6,1.9 -4,1.9 -2.7,0.3 1.3,-1.6 1.3,-1.7 0,-1.3 -2.1,0.7 -3.1,6.5 -1.4,7.9 0.8,0.6 1.4,1.8 1.4,2.5 0,0.7 0.7,1.7 1.5,2 2.9,1.1 1.3,5.7 -2,5.9 -0.5,0 -0.9,0.7 -0.8,1.5 1.1,9.6 1.7,11.3 5,15.1 1.9,2.2 4.2,3.9 4.9,3.9 0.7,0 1.4,0.5 1.4,1 0,0.5 0.6,1 1.2,1 0.7,0 2.6,1.1 4.2,2.5 1.6,1.4 4.4,3.1 6.2,3.9 3.2,1.4 5.4,5.2 9.3,16.1 3.1,8.8 4.2,10.3 10.4,15.5 3.4,2.8 6.8,5.7 7.7,6.5 2.7,2.6 9.2,4.2 14.9,3.7 10.8,-0.9 12.2,-0.8 13.4,1.1 0.9,1.5 0.6,2.2 -1.6,4.2 -1.5,1.3 -2.8,3.1 -2.8,4 0,1.9 6.1,4.7 17.5,8.1 4.4,1.3 9.6,3.5 11.5,4.8 1.9,1.3 5.8,3.2 8.5,4.1 2.7,0.9 5.7,2.4 6.5,3.3 0.8,0.9 3.1,2.8 5.1,4.1 4.3,2.9 7.1,7.3 5.8,9.2 -0.5,0.79999 -0.9,2.59999 -0.9,4.09999 0,2.1 -0.5,2.8 -2.1,2.8 -3.4,0 -5.9,-1.9 -7.5,-5.8 -1.9,-4.49999 -2.9,-5.19999 -8,-5.19999 -5.5,0 -8.5,-1 -8.5,-2.7 0,-1.7 -0.8,-1.3 -2.2,-1.1 -1.5,0.2 -3,1.8 -4.4,4.6 -1.2,2.4 -2.6,4.79999 -3.2,5.49999 -0.5,0.7 -1.1,3.7 -1.3,6.7 -0.3,5.5 -0.3,5.5 2.7,5.8 1.6,0.2 3.2,0.7 3.5,1.1 0.3,0.4 2,1.5 3.8,2.4 3.2,1.6 3.8,3.2 3.4,8 0,1.1 0.3,2.2 0.9,2.6 0.7,0.4 0.8,1.6 0.4,2.9 -0.5,1.6 -1.2,2 -2.6,1.6 -2.1,-0.7 -8.4,2.7 -9.2,4.8 -0.3,0.7 -0.1,2.1 0.3,3.19999 1.5,3.7 1,5.3 -2.8,9.2 -2.1,2.1 -4.2,5.4 -4.8,7.3 -0.9,3.1 -1.4,3.5 -5.2,3.7 -3.3,0.2 -4.4,-0.1 -5.2,-1.6 z"
     id="path6"
     style="fill:#8a7b82;fill-opacity:1" />
  <path
     d="m 399.30175,539.31504 c -0.3,-0.3 -2.3,-0.7 -4.4,-0.8 -2.1,-0.2 -4.4,-0.4 -5.1,-0.5 -0.7,0 -3.3,-2.2 -5.8,-4.8 -3.8,-3.8 -5,-4.5 -7.3,-4.1 -2.9,0.5 -5.9,-0.6 -12.7,-4.7 -7.6,-4.6 -12.5,-6.8 -14.1,-6.2 -2.7,1 -7.4,-3.1 -7.4,-6.5 0,-6.1 4.6,-10.4 8,-7.4 1.7,1.5 2,1.5 4.2,-0.8 3.1,-3.2 5.8,-4.1 6.5,-2.2 0.3,0.8 1.2,1.5 2,1.5 0.8,0 2.2,0.7 3.1,1.6 1.1,1.1 2.4,1.4 4.2,0.9 1.4,-0.4 4.5,-0.8 6.9,-1 6.1,-0.4 9.2,-1.3 12.1,-3.6 1.7,-1.3 3.4,-1.8 5.2,-1.4 1.8,0.4 4,-0.2 7.1,-1.9 2.4,-1.4 4.8,-2.5 5.2,-2.5 1.5,0 0.7,2.8 -2.8,9.3 -1.9,3.6 -3.5,7.7 -3.5,9.1 0,1.4 -0.5,2.8 -1,3.1 -1.7,1.1 -1.1,4.4 1,5.5 1.1,0.6 1.8,1.4 1.6,1.8 -0.2,0.4 0.1,1.8 0.9,3.1 1.1,2.1 1,2.8 -0.7,5.2 -1.2,1.6 -1.8,3.6 -1.5,4.8 0.5,2 -0.4,3.6 -1.5,2.5 z"
     id="path5"
     style="fill:#8a7b82;fill-opacity:1" />
  <path
     d="m 333.00175,539.91504 c -0.3,-0.5 0,-1 0.9,-1 0.9,0 1.6,0.5 1.6,1 0,0.5 -0.4,1 -0.9,1 -0.5,0 -1.2,-0.5 -1.6,-1 z"
     id="path4"
     style="fill:#8a7b82;fill-opacity:1" />
  <path
     d="m 382.00175,556.91504 c -0.3,-0.5 0,-1 0.9,-1 0.9,0 1.6,0.5 1.6,1 0,0.5 -0.4,1 -0.9,1 -0.5,0 -1.2,-0.5 -1.6,-1 z"
     id="path3"
     style="fill:#8a7b82;fill-opacity:1" />
  <path
     d="m 386.20175,562.21504 c -1.5,-1.5 -0.6,-3.5 1.6,-3.2 2.8,0.4 3.7,3.8 1,3.8 -2.7,0 -2.2,-0.3 -2.6,-0.7 z"
     id="path2009"
     style="fill:#8a7b82;fill-opacity:1" />
  <path
     style="fill:none;fill-opacity:1;stroke:#15151b;stroke-width:2.894;stroke-dasharray:none;stroke-opacity:1;marker-start:url(#ArrowWideRounded)"
     d="m 174.32391,227.95401 c 3.12601,-38.88045 31.58859,-55.35674 52.77803,-60.69776"
     id="path93"
     sodipodi:nodetypes="cc" />
  <path
     style="fill:none;fill-opacity:1;stroke:#15151b;stroke-width:2.894;stroke-dasharray:none;stroke-opacity:1;marker-start:url(#ArrowWideRounded-49)"
     d="m 255.5982,261.72006 c 14.04903,-18.09578 18.73619,-34.24486 19.87937,-45.36574"
     id="path93-5"
     sodipodi:nodetypes="cc" />
  <path
     style="fill:none;fill-opacity:1;stroke:#15151b;stroke-width:2.894;stroke-dasharray:none;stroke-opacity:1;marker-start:url(#ArrowWideRounded-4)"
     d="m 268.95328,210.95896 c -36.78345,-4.43209 -78.96915,16.15573 -89.59462,21.19794"
     id="path93-8"
     sodipodi:nodetypes="cc" />
  <path
     style="fill:#15151b;fill-opacity:1;stroke:none;stroke-width:3.89695;stroke-dasharray:none;stroke-opacity:1"
     id="path94"
     sodipodi:type="arc"
     sodipodi:cx="231.814"
     sodipodi:cy="166.05054"
     sodipodi:rx="3.1205418"
     sodipodi:ry="3.1205418"
     sodipodi:start="0"
     sodipodi:end="5.9773064"
     sodipodi:open="true"
     sodipodi:arc-type="arc"
     d="m 234.93454,166.05054 a 3.1205418,3.1205418 0 0 1 -2.88215,3.11142 3.1205418,3.1205418 0 0 1 -3.32251,-2.63603 3.1205418,3.1205418 0 0 1 2.3745,-3.51418 3.1205418,3.1205418 0 0 1 3.68531,2.09909"
     inkscape:transform-center-x="-0.71192288"
     inkscape:transform-center-y="1.7798072" />
  <path
     style="fill:#15151b;fill-opacity:1;stroke:none;stroke-width:3.89695;stroke-dasharray:none;stroke-opacity:1"
     id="path94-2"
     sodipodi:type="arc"
     sodipodi:cx="173.24457"
     sodipodi:cy="234.31235"
     sodipodi:rx="3.1205418"
     sodipodi:ry="3.1205418"
     sodipodi:start="0"
     sodipodi:end="5.9773064"
     sodipodi:open="true"
     sodipodi:arc-type="arc"
     d="m 176.36511,234.31235 a 3.1205418,3.1205418 0 0 1 -2.88215,3.11142 3.1205418,3.1205418 0 0 1 -3.32251,-2.63603 3.1205418,3.1205418 0 0 1 2.3745,-3.51418 3.1205418,3.1205418 0 0 1 3.68531,2.09909"
     inkscape:transform-center-x="-0.71192288"
     inkscape:transform-center-y="1.7798072" />
  <path
     style="fill:#15151b;fill-opacity:1;stroke:none;stroke-width:3.89695;stroke-dasharray:none;stroke-opacity:1"
     id="path94-2-2"
     sodipodi:type="arc"
     sodipodi:cx="275.49515"
     sodipodi:cy="211.05045"
     sodipodi:rx="3.1205418"
     sodipodi:ry="3.1205418"
     sodipodi:start="0"
     sodipodi:end="5.9773064"
     sodipodi:open="true"
     sodipodi:arc-type="arc"
     d="m 278.61569,211.05045 a 3.1205418,3.1205418 0 0 1 -2.88215,3.11142 3.1205418,3.1205418 0 0 1 -3.32251,-2.63603 3.1205418,3.1205418 0 0 1 2.3745,-3.51418 3.1205418,3.1205418 0 0 1 3.68531,2.09909"
     inkscape:transform-center-x="-0.71192288"
     inkscape:transform-center-y="1.7798072" />
  <path
     style="fill:#15151b;fill-opacity:1;stroke:none;stroke-width:3.89695;stroke-dasharray:none;stroke-opacity:1"
     id="path94-2-2-6"
     sodipodi:type="arc"
     sodipodi:cx="251.12881"
     sodipodi:cy="266.63345"
     sodipodi:rx="3.1205418"
     sodipodi:ry="3.1205418"
     sodipodi:start="0"
     sodipodi:end="5.9773064"
     sodipodi:open="true"
     sodipodi:arc-type="arc"
     d="m 254.24936,266.63345 a 3.1205418,3.1205418 0 0 1 -2.88215,3.11143 3.1205418,3.1205418 0 0 1 -3.32251,-2.63603 3.1205418,3.1205418 0 0 1 2.3745,-3.51418 3.1205418,3.1205418 0 0 1 3.68531,2.09909"
     inkscape:transform-center-x="-0.71192288"
     inkscape:transform-center-y="1.7798072" />
</svg>
